<?xml version="1.0" encoding="UTF-8" standalone="no"?>
<svg
   width="148mm"
   height="105mm"
   viewBox="0 0 148 105"
   version="1.1"
   id="svg3820"
   sodipodi:docname="en_layout.svg"
   inkscape:version="1.1.2 (0a00cf5339, 2022-02-04, custom)"
   xmlns:inkscape="http://www.inkscape.org/namespaces/inkscape"
   xmlns:sodipodi="http://sodipodi.sourceforge.net/DTD/sodipodi-0.dtd"
   xmlns="http://www.w3.org/2000/svg"
   xmlns:svg="http://www.w3.org/2000/svg">
  <defs
     id="defs166" />
  <sodipodi:namedview
     id="namedview164"
     pagecolor="#ffffff"
     bordercolor="#666666"
     borderopacity="1.0"
     inkscape:pageshadow="2"
     inkscape:pageopacity="0.0"
     inkscape:pagecheckerboard="0"
     inkscape:document-units="mm"
     showgrid="false"
     inkscape:zoom="0.74033659"
     inkscape:cx="164.11454"
     inkscape:cy="-2.7014739"
     inkscape:window-width="1920"
     inkscape:window-height="1022"
     inkscape:window-x="0"
     inkscape:window-y="30"
     inkscape:window-maximized="1"
     inkscape:current-layer="svg3820" />
  <g
     id="ls_n">
    <path
       id="rect846-9-28-4"
       style="fill:#e9d9f2;fill-opacity:0.2;stroke:#7109aa;stroke-width:0.2;stroke-miterlimit:4;stroke-dasharray:none;stroke-opacity:0.2"
       d="m 11.100132,28.752172 c -0.1662,0 -0.30024,0.13404 -0.30024,0.30024 v 26.257831 c 0,2.76998 2.23021,4.99969 5.000205,4.99969 2.769999,0 5.000219,-2.22971 5.000219,-4.99969 V 29.052412 c 0,-0.1662 -0.13404,-0.30024 -0.30025,-0.30024 z"
       sodipodi:nodetypes="cccsccsc" />
  </g>
  <g
     id="lt_n">
    <path
       id="rect846-9-28-3-9"
       style="fill:#e9d9f2;fill-opacity:0.2;stroke:#7109aa;stroke-width:0.2;stroke-opacity:0.2"
       d="m 23.716821,28.752586 h 9.4 c 0.1662,0 0.3,0.133801 0.3,0.300001 v 14.399999 c 0,0.1662 -0.1338,0.3 -0.3,0.3 h -9.4 c -0.1662,0 -0.3,-0.1338 -0.3,-0.3 V 29.052587 c 0,-0.1662 0.1338,-0.300001 0.3,-0.300001 z" />
  </g>
  <g
     id="lk_n">
    <path
       id="rect846-9-42-6-8-7-5-2-4-9-0-9"
       style="fill:#e9d9f2;fill-opacity:0.2;stroke:#7109aa;stroke-width:0.2;stroke-opacity:0.2"
       d="m 23.716997,44.781343 c -0.1662,0 -0.30024,0.13353 -0.30024,0.29973 v 0.22944 9.99991 c 0,2.76998 2.23021,4.99969 5.00021,4.99969 2.77,0 5.00021,-2.22971 5.00021,-4.99969 v -9.99991 -0.22944 c 0,-0.1662 -0.13404,-0.29973 -0.30024,-0.29973 z"
       sodipodi:nodetypes="ssccsccsss" />
  </g>
  <g
     id="lp_n">
    <path
       id="rect846-9-28-3-9-4"
       style="fill:#e9d9f2;fill-opacity:0.2;stroke:#7109aa;stroke-width:0.2;stroke-opacity:0.2"
       d="m 36.333485,28.752586 h 9.4 c 0.1662,0 0.3,0.133801 0.3,0.300001 v 14.399999 c 0,0.1662 -0.1338,0.3 -0.3,0.3 h -9.4 c -0.1662,0 -0.3,-0.1338 -0.3,-0.3 V 29.052587 c 0,-0.1662 0.1338,-0.300001 0.3,-0.300001 z" />
  </g>
  <g
     id="lw_n">
    <path
       id="rect846-9-42-6-8-7-5-2-4-9-0-9-5"
       style="fill:#e9d9f2;fill-opacity:0.2;stroke:#7109aa;stroke-width:0.2;stroke-opacity:0.2"
       d="m 36.333666,44.781343 c -0.1662,0 -0.30024,0.13353 -0.30024,0.29973 v 0.22944 9.99991 c 0,2.76998 2.23021,4.99969 5.00021,4.99969 2.77,0 5.00021,-2.22971 5.00021,-4.99969 v -9.99991 -0.22944 c 0,-0.1662 -0.13404,-0.29973 -0.30024,-0.29973 z"
       sodipodi:nodetypes="ssccsccsss" />
  </g>
  <g
     id="lh_n">
    <path
       id="rect846-9-28-3-9-9"
       style="fill:#e9d9f2;fill-opacity:0.2;stroke:#7109aa;stroke-width:0.2;stroke-opacity:0.2"
       d="m 48.950154,28.752586 h 9.4 c 0.1662,0 0.3,0.133801 0.3,0.300001 v 14.399999 c 0,0.1662 -0.1338,0.3 -0.3,0.3 h -9.4 c -0.1662,0 -0.3,-0.1338 -0.3,-0.3 V 29.052587 c 0,-0.1662 0.1338,-0.300001 0.3,-0.300001 z" />
  </g>
  <g
     id="lr_n">
    <path
       id="rect846-9-42-6-8-7-5-2-4-9-0-9-3"
       style="fill:#e9d9f2;fill-opacity:0.2;stroke:#7109aa;stroke-width:0.2;stroke-opacity:0.2"
       d="m 48.950332,44.781353 c -0.1662,0 -0.30024,0.13353 -0.30024,0.29973 v 0.22944 9.99991 c 0,2.76998 2.23021,4.99969 5.00021,4.99969 2.77,0 5.00021,-2.22971 5.00021,-4.99969 v -9.99991 -0.22944 c 0,-0.1662 -0.13404,-0.29973 -0.30024,-0.29973 z"
       sodipodi:nodetypes="ssccsccsss" />
  </g>
  <g
     id="star_n">
    <path
       id="rect846-9-7-9-5"
       style="fill:#e9d9f2;fill-opacity:0.2;stroke:#7109aa;stroke-width:0.2;stroke-miterlimit:4;stroke-dasharray:none;stroke-opacity:0.2"
       d="m 61.567061,28.752152 c -0.166198,0 -0.300238,0.13404 -0.300238,0.30024 v 26.257831 c 0,2.76998 2.230205,4.99969 5.000215,4.99969 2.620915,0 4.757045,-1.9966 4.979535,-4.55786 h 2.72025 c 0.16621,0 0.29972,-0.13404 0.29972,-0.30024 V 29.051872 c 0,-0.1662 -0.13352,-0.29972 -0.29972,-0.29972 z"
       sodipodi:nodetypes="cssscssscc" />
  </g>
  <g
     id="rf_n">
    <path
       id="rect846-9-28-3-9-7"
       style="fill:#e9d9f2;fill-opacity:0.2;stroke:#7109aa;stroke-width:0.2;stroke-opacity:0.2"
       d="m 75.595723,28.752586 h 9.4 c 0.1662,0 0.3,0.133801 0.3,0.300001 v 14.399999 c 0,0.1662 -0.1338,0.3 -0.3,0.3 h -9.4 c -0.1662,0 -0.3,-0.1338 -0.3,-0.3 V 29.052587 c 0,-0.1662 0.1338,-0.300001 0.3,-0.300001 z" />
  </g>
  <g
     id="rr_n">
    <path
       id="rect846-9-42-6-8-7-5-2-4-9-0-9-0"
       style="fill:#e9d9f2;fill-opacity:0.2;stroke:#7109aa;stroke-width:0.2;stroke-opacity:0.2"
       d="m 75.595893,44.781343 c -0.1662,0 -0.30024,0.13353 -0.30024,0.29973 v 0.22944 9.99991 c 0,2.76998 2.23021,4.99969 5.00021,4.99969 2.77,0 5.00021,-2.22971 5.00021,-4.99969 v -9.99991 -0.22944 c 0,-0.1662 -0.13404,-0.29973 -0.30024,-0.29973 z"
       sodipodi:nodetypes="ssccsccsss" />
  </g>
  <g
     id="rp_n">
    <path
       id="rect846-9-28-3-9-4-8"
       style="fill:#e9d9f2;fill-opacity:0.2;stroke:#7109aa;stroke-width:0.2;stroke-opacity:0.2"
       d="m 88.212407,28.752586 h 9.4 c 0.1662,0 0.3,0.133801 0.3,0.300001 v 14.399999 c 0,0.1662 -0.1338,0.3 -0.3,0.3 h -9.4 c -0.1662,0 -0.3,-0.1338 -0.3,-0.3 V 29.052587 c 0,-0.1662 0.1338,-0.300001 0.3,-0.300001 z" />
  </g>
  <g
     id="rb_n">
    <path
       id="rect846-9-42-6-8-7-5-2-4-9-0-9-5-1"
       style="fill:#e9d9f2;fill-opacity:0.2;stroke:#7109aa;stroke-width:0.2;stroke-opacity:0.2"
       d="m 88.21256,44.781343 c -0.1662,0 -0.30024,0.13353 -0.30024,0.29973 v 0.22944 9.99991 c 0,2.76998 2.23023,4.99969 5.00024,4.99969 2.77002,0 5.00023,-2.22971 5.00023,-4.99969 v -9.99991 -0.22944 c 0,-0.1662 -0.13404,-0.29973 -0.30024,-0.29973 z"
       sodipodi:nodetypes="ssccsccsss" />
  </g>
  <g
     id="rl_n">
    <path
       id="rect846-9-28-3-9-9-9"
       style="fill:#e9d9f2;fill-opacity:0.2;stroke:#7109aa;stroke-width:0.2;stroke-opacity:0.2"
       d="m 100.82905,28.752586 h 9.4 c 0.1662,0 0.3,0.133801 0.3,0.300001 v 14.399999 c 0,0.1662 -0.1338,0.3 -0.3,0.3 h -9.4 c -0.1662,0 -0.3,-0.1338 -0.3,-0.3 V 29.052587 c 0,-0.1662 0.1338,-0.300001 0.3,-0.300001 z" />
  </g>
  <g
     id="rg_n">
    <path
       id="rect846-9-42-6-8-7-5-2-4-9-0-9-3-9"
       style="fill:#e9d9f2;fill-opacity:0.2;stroke:#7109aa;stroke-width:0.2;stroke-opacity:0.2"
       d="m 100.82929,44.781353 c -0.1662,0 -0.30024,0.13353 -0.30024,0.29973 v 0.22944 9.99991 c 0,2.76998 2.23021,4.99969 5.0002,4.99969 2.76999,0 5.0002,-2.22971 5.0002,-4.99969 v -9.99991 -0.22944 c 0,-0.1662 -0.13404,-0.29973 -0.30024,-0.29973 z"
       sodipodi:nodetypes="ssccsccsss" />
  </g>
  <g
     id="rt_n">
    <path
       id="rect846-9-28-3-9-9-9-7"
       style="fill:#e9d9f2;fill-opacity:0.2;stroke:#7109aa;stroke-width:0.2;stroke-opacity:0.2"
       d="m 113.44571,28.752586 h 9.4 c 0.1662,0 0.3,0.133801 0.3,0.300001 v 14.399999 c 0,0.1662 -0.1338,0.3 -0.3,0.3 h -9.4 c -0.1662,0 -0.3,-0.1338 -0.3,-0.3 V 29.052587 c 0,-0.1662 0.1338,-0.300001 0.3,-0.300001 z" />
  </g>
  <g
     id="rs_n">
    <path
       id="rect846-9-42-6-8-7-5-2-4-9-0-9-3-9-8"
       style="fill:#e9d9f2;fill-opacity:0.2;stroke:#7109aa;stroke-width:0.2;stroke-opacity:0.2"
       d="m 113.44596,44.781353 c -0.1662,0 -0.30024,0.13353 -0.30024,0.29973 v 0.22944 9.99991 c 0,2.76998 2.23021,4.99969 5.00021,4.99969 2.77,0 5.00021,-2.22971 5.00021,-4.99969 v -9.99991 -0.22944 c 0,-0.1662 -0.13404,-0.29973 -0.30024,-0.29973 z"
       sodipodi:nodetypes="ssccsccsss" />
  </g>
  <g
     id="rd_n">
    <path
       id="rect846-9-5-2-5"
       style="fill:#e9d9f2;fill-opacity:0.2;stroke:#7109aa;stroke-width:0.2;stroke-opacity:0.2"
       d="m 124.47488,28.752586 h 12.4 c 0.1662,0 0.3,0.133801 0.3,0.300001 v 14.399999 c 0,0.1662 -0.1338,0.3 -0.3,0.3 h -12.4 c -0.1662,0 -0.3,-0.1338 -0.3,-0.3 V 29.052587 c 0,-0.1662 0.1338,-0.300001 0.3,-0.300001 z" />
  </g>
  <g
     id="rz_n">
    <path
       id="rect846-9-42-6-8-7-5-2-4-9-0-5-2"
       style="fill:#e9d9f2;fill-opacity:0.2;stroke:#7109aa;stroke-width:0.2;stroke-opacity:0.2"
       d="m 124.47476,44.781293 c -0.1662,0 -0.29972,0.13404 -0.29972,0.30024 v 10.39988 c 0,0.1662 0.13352,0.29972 0.29972,0.29972 h 2.7218 c 0.23584,2.54753 2.36681,4.52893 4.978,4.52893 2.69372,0 4.87685,-2.10879 4.99503,-4.77232 0.003,-0.0183 0.005,-0.037 0.005,-0.0563 v -0.17105 -10.22883 c 0,-0.0727 -0.0255,-0.13939 -0.0682,-0.19121 -0.006,-0.007 -0.0125,-0.0146 -0.0191,-0.0212 -0.0203,-0.0204 -0.0437,-0.0378 -0.0692,-0.0517 -0.0147,-0.008 -0.0305,-0.0147 -0.0465,-0.0202 -0.002,-7.9e-4 -0.005,-0.002 -0.007,-0.003 -1.5e-4,-5e-5 -2.6e-4,5e-5 -5.3e-4,0 -0.0281,-0.009 -0.0579,-0.0134 -0.0889,-0.0134 z"
       sodipodi:nodetypes="cssscscscssssssccc" />
  </g>
  <g
     id="la_n">
    <path
       id="rect846-9-42-6-8-7-5-2-4-9-0-9-5-4"
       style="fill:#e9d9f2;fill-opacity:0.2;stroke:#7109aa;stroke-width:0.2;stroke-opacity:0.2"
       d="m 38.979501,68.747663 c -0.1662,0 -0.30024,0.13353 -0.30024,0.29973 v 0.22944 9.99991 c 0,2.76998 2.23021,4.99969 5.00021,4.99969 2.77,0 5.00021,-2.22971 5.00021,-4.99969 v -9.99991 -0.22944 c 0,-0.1662 -0.13404,-0.29973 -0.30024,-0.29973 z"
       sodipodi:nodetypes="ssccsccsss" />
  </g>
  <g
     id="lo_n">
    <path
       id="rect846-9-42-6-8-7-5-2-4-9-0-9-3-90"
       style="fill:#e9d9f2;fill-opacity:0.2;stroke:#7109aa;stroke-width:0.2;stroke-opacity:0.2"
       d="m 51.596167,68.747673 c -0.1662,0 -0.30024,0.13353 -0.30024,0.29973 v 0.22944 9.99991 c 0,2.76998 2.23021,4.99969 5.00021,4.99969 2.77,0 5.00021,-2.22971 5.00021,-4.99969 v -9.99991 -0.22944 c 0,-0.1662 -0.13404,-0.29973 -0.30024,-0.29973 z"
       sodipodi:nodetypes="ssccsccsss" />
  </g>
  <g
     id="re_n">
    <path
       id="rect846-9-42-6-8-7-5-2-4-9-0-9-0-2"
       style="fill:#e9d9f2;fill-opacity:0.2;stroke:#7109aa;stroke-width:0.2;stroke-opacity:0.2"
       d="m 72.950063,68.747663 c -0.1662,0 -0.30024,0.13353 -0.30024,0.29973 v 0.22944 9.99991 c 0,2.76998 2.23021,4.99969 5.00021,4.99969 2.77,0 5.00021,-2.22971 5.00021,-4.99969 v -9.99991 -0.22944 c 0,-0.1662 -0.13404,-0.29973 -0.30024,-0.29973 z"
       sodipodi:nodetypes="ssccsccsss" />
  </g>
  <g
     id="ru_n">
    <path
       id="rect846-9-42-6-8-7-5-2-4-9-0-9-5-1-0"
       style="fill:#e9d9f2;fill-opacity:0.2;stroke:#7109aa;stroke-width:0.2;stroke-opacity:0.2"
       d="m 85.566723,68.747663 c -0.1662,0 -0.30024,0.13353 -0.30024,0.29973 v 0.22944 9.99991 c 0,2.76998 2.230217,4.99969 5.000227,4.99969 2.77002,0 5.00023,-2.22971 5.00023,-4.99969 v -9.99991 -0.22944 c 0,-0.1662 -0.13404,-0.29973 -0.30024,-0.29973 z"
       sodipodi:nodetypes="ssccsccsss" />
  </g>
  <g
     id="num_n">
    <path
       id="rect846-9-42-3-8-3"
       style="fill:#e9d9f2;fill-opacity:0.2;stroke:#7109aa;stroke-width:0.2;stroke-opacity:0.2"
       d="M 11.100106,20.723558 H 136.90011 c 0.1662,0 0.3,0.133801 0.3,0.300001 v 6.399999 c 0,0.1662 -0.1338,0.3 -0.3,0.3 H 11.100106 c -0.1662,0 -0.3,-0.1338 -0.3,-0.3 v -6.399999 c 0,-0.1662 0.1338,-0.300001 0.3,-0.300001 z" />
  </g>
  <g
     id="ls">
    <path
       id="path48"
       style="fill:#e9d9f2;fill-opacity:1;stroke:#7109aa;stroke-width:0.499999;stroke-miterlimit:4;stroke-dasharray:none;stroke-opacity:1"
       d="m 11.100132,28.752172 c -0.1662,0 -0.30024,0.13404 -0.30024,0.30024 v 26.257831 c 0,2.76998 2.23021,4.99969 5.000205,4.99969 2.769999,0 5.000219,-2.22971 5.000219,-4.99969 V 29.052412 c 0,-0.1662 -0.13404,-0.30024 -0.30025,-0.30024 z"
       sodipodi:nodetypes="cccsccsc" />
    <g
       aria-label="S"
       id="text4169"
       style="font-weight:600;font-size:5.64444px;line-height:1.25;font-family:'Iosevka Term';text-align:center;text-anchor:middle;fill:#7109aa;stroke-width:0.264583">
      <path
         d="m 15.785987,46.65054 q 0.231422,0 0.451555,-0.06773 0.220133,-0.06773 0.383822,-0.231422 0.169333,-0.163689 0.248355,-0.378177 0.08467,-0.220134 0.08467,-0.445911 0,-0.220133 -0.09031,-0.428978 -0.08467,-0.208844 -0.242711,-0.366888 -0.1524,-0.158045 -0.344311,-0.270933 -0.186267,-0.112889 -0.378178,-0.214489 h -0.0056 q -0.1524,-0.07338 -0.293511,-0.163689 -0.135466,-0.09596 -0.220133,-0.242711 -0.08467,-0.1524 -0.08467,-0.316089 0,-0.141111 0.05645,-0.276577 0.05644,-0.141111 0.180622,-0.214489 0.129822,-0.07338 0.276577,-0.07338 0.135467,0 0.254,0.06209 0.124178,0.06209 0.180622,0.186267 0.06209,0.124178 0.06209,0.259644 h 0.6096 q 0,-0.214489 -0.07902,-0.417688 -0.07338,-0.208845 -0.231423,-0.361245 -0.158044,-0.1524 -0.372533,-0.214488 -0.208844,-0.06209 -0.423333,-0.06209 -0.225777,0 -0.440266,0.06773 -0.214489,0.06773 -0.372533,0.237067 -0.158044,0.163688 -0.231422,0.378177 -0.07338,0.214489 -0.07338,0.440266 0,0.169334 0.0508,0.338667 0.0508,0.163689 0.1524,0.3048 0.1016,0.141111 0.231422,0.253999 0.135467,0.112889 0.282222,0.2032 0.146756,0.08467 0.299156,0.163689 0.158044,0.07338 0.304799,0.169333 0.146756,0.09031 0.237067,0.242711 0.09596,0.1524 0.09596,0.321733 0,0.1524 -0.06773,0.293511 -0.06209,0.141111 -0.2032,0.208844 -0.135466,0.06773 -0.287866,0.06773 -0.135467,0 -0.270933,-0.05644 -0.129823,-0.05644 -0.2032,-0.180622 -0.06773,-0.129822 -0.06773,-0.265289 h -0.609599 q 0,0.220134 0.08467,0.428978 0.08467,0.2032 0.248356,0.3556 0.169333,0.146755 0.383822,0.208844 0.214488,0.05644 0.434622,0.05644 z"
         id="path1058" />
    </g>
  </g>
  <g
     id="lt">
    <path
       id="rect53"
       style="fill:#e9d9f2;stroke:#7109aa;stroke-width:0.5"
       d="m 23.716821,28.752586 h 9.4 c 0.1662,0 0.3,0.133801 0.3,0.300001 v 14.399999 c 0,0.1662 -0.1338,0.3 -0.3,0.3 h -9.4 c -0.1662,0 -0.3,-0.1338 -0.3,-0.3 V 29.052587 c 0,-0.1662 0.1338,-0.300001 0.3,-0.300001 z" />
    <g
       aria-label="T"
       id="text4169-3"
       style="font-weight:600;font-size:5.64444px;line-height:1.25;font-family:'Iosevka Term';text-align:center;text-anchor:middle;fill:#7109aa;stroke-width:0.264583">
      <path
         d="m 28.109194,38.32692 h 0.6096 v -3.601153 h 0.869243 V 34.178256 H 27.23995 v 0.547511 h 0.869244 z"
         id="path1055" />
    </g>
  </g>
  <g
     id="lk">
    <path
       id="path58"
       style="fill:#e9d9f2;fill-opacity:1;stroke:#7109aa;stroke-width:0.499999;stroke-opacity:1"
       d="m 23.716997,44.781343 c -0.1662,0 -0.30024,0.13353 -0.30024,0.29973 v 0.22944 9.99991 c 0,2.76998 2.23021,4.99969 5.00021,4.99969 2.77,0 5.00021,-2.22971 5.00021,-4.99969 v -9.99991 -0.22944 c 0,-0.1662 -0.13404,-0.29973 -0.30024,-0.29973 z"
       sodipodi:nodetypes="ssccsccsss" />
    <g
       aria-label="K"
       id="text4169-0"
       style="font-weight:600;font-size:5.64444px;line-height:1.25;font-family:'Iosevka Term';text-align:center;text-anchor:middle;fill:#7109aa;stroke-width:0.264583">
      <path
         d="m 27.39814,54.090889 h 0.609599 v -1.303866 l 0.174978,-0.321733 0.180622,0.383822 0.587022,1.241777 h 0.660399 l -1.066799,-2.263421 1.066799,-1.885243 h -0.671688 l -0.931333,1.749777 V 49.942225 H 27.39814 Z"
         id="path1051" />
    </g>
  </g>
  <g
     id="lp">
    <path
       id="rect63"
       style="fill:#e9d9f2;stroke:#7109aa;stroke-width:0.5"
       d="m 36.333485,28.752586 h 9.4 c 0.1662,0 0.3,0.133801 0.3,0.300001 v 14.399999 c 0,0.1662 -0.1338,0.3 -0.3,0.3 h -9.4 c -0.1662,0 -0.3,-0.1338 -0.3,-0.3 V 29.052587 c 0,-0.1662 0.1338,-0.300001 0.3,-0.300001 z" />
    <g
       aria-label="P"
       id="text4169-02"
       style="font-weight:600;font-size:5.64444px;line-height:1.25;font-family:'Iosevka Term';text-align:center;text-anchor:middle;fill:#7109aa;stroke-width:0.264583">
      <path
         d="m 40.003371,38.32692 h 0.603955 v -1.619955 h 0.389466 q 0.2032,0 0.400755,-0.04515 0.197556,-0.04516 0.361245,-0.158045 0.169333,-0.118533 0.276577,-0.287866 0.107244,-0.174978 0.146756,-0.372533 0.04516,-0.197556 0.04516,-0.400755 0,-0.197556 -0.04516,-0.395111 -0.03951,-0.2032 -0.146756,-0.372533 -0.107244,-0.169333 -0.276577,-0.287867 -0.163689,-0.118533 -0.361245,-0.163688 -0.197555,-0.04516 -0.400755,-0.04516 h -0.993421 z m 0.603955,-2.167465 v -1.433688 h 0.389466 q 0.135467,0 0.259644,0.0508 0.129822,0.0508 0.214489,0.158044 0.08467,0.107244 0.112889,0.242711 0.03387,0.129822 0.03387,0.265289 0,0.135466 -0.03387,0.270933 -0.02822,0.129822 -0.112889,0.242711 -0.08467,0.107244 -0.214489,0.158044 -0.124177,0.04516 -0.259644,0.04516 z"
         id="path1048" />
    </g>
  </g>
  <g
     id="lw">
    <path
       id="path68"
       style="fill:#e9d9f2;fill-opacity:1;stroke:#7109aa;stroke-width:0.499999;stroke-opacity:1"
       d="m 36.333666,44.781343 c -0.1662,0 -0.30024,0.13353 -0.30024,0.29973 v 0.22944 9.99991 c 0,2.76998 2.23021,4.99969 5.00021,4.99969 2.77,0 5.00021,-2.22971 5.00021,-4.99969 v -9.99991 -0.22944 c 0,-0.1662 -0.13404,-0.29973 -0.30024,-0.29973 z"
       sodipodi:nodetypes="ssccsccsss" />
    <g
       aria-label="W"
       id="text4169-4"
       style="font-weight:600;font-size:5.64444px;line-height:1.25;font-family:'Iosevka Term';text-align:center;text-anchor:middle;fill:#7109aa;stroke-width:0.264583">
      <path
         d="m 40.218008,54.090889 h 0.524933 l 0.287866,-2.387598 0.287867,2.387598 h 0.524933 l 0.491066,-4.148664 H 41.730718 L 41.55574,53.261156 41.296096,51.10498 h -0.524933 l -0.259644,2.156176 -0.03387,-0.592666 -0.141111,-2.726265 h -0.609599 z"
         id="path1044" />
    </g>
  </g>
  <g
     id="lh">
    <path
       id="rect73"
       style="fill:#e9d9f2;stroke:#7109aa;stroke-width:0.5"
       d="m 48.950154,28.752586 h 9.4 c 0.1662,0 0.3,0.133801 0.3,0.300001 v 14.399999 c 0,0.1662 -0.1338,0.3 -0.3,0.3 h -9.4 c -0.1662,0 -0.3,-0.1338 -0.3,-0.3 V 29.052587 c 0,-0.1662 0.1338,-0.300001 0.3,-0.300001 z" />
    <g
       aria-label="H"
       id="text4169-5"
       style="font-weight:600;font-size:5.64444px;line-height:1.25;font-family:'Iosevka Term';text-align:center;text-anchor:middle;fill:#7109aa;stroke-width:0.264583">
      <path
         d="m 52.541013,38.32692 h 0.6096 v -1.857021 h 0.993421 v 1.857021 h 0.6096 v -4.148664 h -0.6096 v 1.744132 h -0.993421 v -1.744132 h -0.6096 z"
         id="path1041" />
    </g>
  </g>
  <g
     id="lr">
    <path
       id="path78"
       style="fill:#e9d9f2;fill-opacity:1;stroke:#7109aa;stroke-width:0.499999;stroke-opacity:1"
       d="m 48.950332,44.781353 c -0.1662,0 -0.30024,0.13353 -0.30024,0.29973 v 0.22944 9.99991 c 0,2.76998 2.23021,4.99969 5.00021,4.99969 2.77,0 5.00021,-2.22971 5.00021,-4.99969 v -9.99991 -0.22944 c 0,-0.1662 -0.13404,-0.29973 -0.30024,-0.29973 z"
       sodipodi:nodetypes="ssccsccsss" />
    <g
       aria-label="R"
       id="text4169-7"
       style="font-weight:600;font-size:5.64444px;line-height:1.25;font-family:'Iosevka Term';text-align:center;text-anchor:middle;fill:#7109aa;stroke-width:0.264583">
      <path
         d="m 52.541166,54.090904 h 0.609599 V 52.47095 h 0.248356 l 0.863599,1.619954 h 0.643466 l -0.886177,-1.66511 q 0.186267,-0.05644 0.344311,-0.174977 0.158044,-0.118534 0.259644,-0.287867 0.1016,-0.174977 0.135467,-0.366888 0.03951,-0.191911 0.03951,-0.389467 0,-0.197555 -0.03951,-0.389466 -0.03951,-0.197555 -0.141111,-0.366889 -0.1016,-0.174977 -0.259644,-0.293511 -0.158045,-0.118533 -0.3556,-0.163688 -0.191911,-0.0508 -0.389466,-0.0508 h -1.072444 z m 0.609599,-2.167465 v -1.433688 h 0.462845 q 0.129822,0 0.248355,0.05645 0.124178,0.0508 0.197555,0.163689 0.07902,0.107244 0.1016,0.237066 0.02822,0.129822 0.02822,0.259644 0,0.129822 -0.02822,0.259645 -0.02258,0.129822 -0.1016,0.24271 -0.07338,0.107245 -0.197555,0.163689 -0.118533,0.0508 -0.248355,0.0508 z"
         id="path1037" />
    </g>
  </g>
  <g
     id="star">
    <path
       id="path83"
       style="fill:#e9d9f2;fill-opacity:1;stroke:#7109aa;stroke-width:0.499999;stroke-miterlimit:4;stroke-dasharray:none;stroke-opacity:1"
       d="m 61.567061,28.752152 c -0.166198,0 -0.300238,0.13404 -0.300238,0.30024 v 26.257831 c 0,2.76998 2.230205,4.99969 5.000215,4.99969 2.620915,0 4.757045,-1.9966 4.979535,-4.55786 h 2.72025 c 0.16621,0 0.29972,-0.13404 0.29972,-0.30024 V 29.051872 c 0,-0.1662 -0.13352,-0.29972 -0.29972,-0.29972 z"
       sodipodi:nodetypes="cssscssscc" />
    <g
       aria-label="*"
       id="text4169-31"
       style="font-weight:600;font-size:5.64444px;line-height:1.25;font-family:'Iosevka Term';text-align:center;text-anchor:middle;fill:#7109aa;stroke-width:0.264583">
      <path
         d="m 67.3123,44.562078 0.451555,-0.688621 0.451555,0.688621 0.491066,-0.321733 -0.54751,-0.677333 0.824088,-0.225777 -0.186266,-0.524933 -0.773289,0.293511 0.04516,-0.852311 h -0.6096 l 0.04516,0.852311 -0.773289,-0.293511 -0.186266,0.524933 0.824088,0.225777 -0.547511,0.677333 z"
         id="path1034" />
    </g>
  </g>
  <g
     id="rf">
    <path
       id="rect88"
       style="fill:#e9d9f2;stroke:#7109aa;stroke-width:0.5"
       d="m 75.595723,28.752586 h 9.4 c 0.1662,0 0.3,0.133801 0.3,0.300001 v 14.399999 c 0,0.1662 -0.1338,0.3 -0.3,0.3 h -9.4 c -0.1662,0 -0.3,-0.1338 -0.3,-0.3 V 29.052587 c 0,-0.1662 0.1338,-0.300001 0.3,-0.300001 z" />
    <g
       aria-label="F"
       id="text4169-9"
       style="font-weight:600;font-size:5.64444px;line-height:1.25;font-family:'Iosevka Term';text-align:center;text-anchor:middle;fill:#7109aa;stroke-width:0.264583">
      <path
         d="m 79.338982,38.32692 h 0.6096 v -1.924755 h 1.117599 v -0.54751 h -1.117599 v -1.128888 h 1.450621 v -0.547511 h -2.060221 z"
         id="path1031" />
    </g>
  </g>
  <g
     id="rr">
    <path
       id="path93"
       style="fill:#e9d9f2;fill-opacity:1;stroke:#7109aa;stroke-width:0.499999;stroke-opacity:1"
       d="m 75.595893,44.781343 c -0.1662,0 -0.30024,0.13353 -0.30024,0.29973 v 0.22944 9.99991 c 0,2.76998 2.23021,4.99969 5.00021,4.99969 2.77,0 5.00021,-2.22971 5.00021,-4.99969 v -9.99991 -0.22944 c 0,-0.1662 -0.13404,-0.29973 -0.30024,-0.29973 z"
       sodipodi:nodetypes="ssccsccsss" />
    <g
       aria-label="R"
       id="text4169-2"
       style="font-weight:600;font-size:5.64444px;line-height:1.25;font-family:'Iosevka Term';text-align:center;text-anchor:middle;fill:#7109aa;stroke-width:0.264583">
      <path
         d="m 79.186727,54.090889 h 0.6096 v -1.619954 h 0.248355 l 0.863599,1.619954 h 0.643467 l -0.886178,-1.66511 q 0.186267,-0.05644 0.344311,-0.174978 0.158045,-0.118533 0.259645,-0.287866 0.101599,-0.174978 0.135466,-0.366889 0.03951,-0.191911 0.03951,-0.389466 0,-0.197555 -0.03951,-0.389466 -0.03951,-0.197556 -0.141111,-0.366889 -0.1016,-0.174978 -0.259644,-0.293511 -0.158044,-0.118533 -0.3556,-0.163689 -0.191911,-0.0508 -0.389466,-0.0508 h -1.072444 z m 0.6096,-2.167465 v -1.433688 h 0.462844 q 0.129822,0 0.248355,0.05644 0.124178,0.0508 0.197556,0.163688 0.07902,0.107245 0.101599,0.237067 0.02822,0.129822 0.02822,0.259644 0,0.129822 -0.02822,0.259644 -0.02258,0.129822 -0.101599,0.242711 -0.07338,0.107245 -0.197556,0.163689 -0.118533,0.0508 -0.248355,0.0508 z"
         id="path1027" />
    </g>
  </g>
  <g
     id="rp">
    <path
       id="rect98"
       style="fill:#e9d9f2;stroke:#7109aa;stroke-width:0.5"
       d="m 88.212407,28.752586 h 9.4 c 0.1662,0 0.3,0.133801 0.3,0.300001 v 14.399999 c 0,0.1662 -0.1338,0.3 -0.3,0.3 h -9.4 c -0.1662,0 -0.3,-0.1338 -0.3,-0.3 V 29.052587 c 0,-0.1662 0.1338,-0.300001 0.3,-0.300001 z" />
    <g
       aria-label="P"
       id="text4169-1"
       style="font-weight:600;font-size:5.64444px;line-height:1.25;font-family:'Iosevka Term';text-align:center;text-anchor:middle;fill:#7109aa;stroke-width:0.264583">
      <path
         d="m 91.882288,38.32692 h 0.603955 v -1.619955 h 0.389467 q 0.2032,0 0.400755,-0.04515 0.197555,-0.04516 0.361244,-0.158045 0.169333,-0.118533 0.276578,-0.287866 0.107244,-0.174978 0.146755,-0.372533 0.04516,-0.197556 0.04516,-0.400755 0,-0.197556 -0.04516,-0.395111 -0.03951,-0.2032 -0.146755,-0.372533 Q 93.807042,34.505634 93.637709,34.3871 93.47402,34.268567 93.276465,34.223412 93.07891,34.178256 92.87571,34.178256 h -0.993422 z m 0.603955,-2.167465 v -1.433688 h 0.389467 q 0.135466,0 0.259644,0.0508 0.129822,0.0508 0.214489,0.158044 0.08467,0.107244 0.112889,0.242711 0.03387,0.129822 0.03387,0.265289 0,0.135466 -0.03387,0.270933 -0.02822,0.129822 -0.112889,0.242711 -0.08467,0.107244 -0.214489,0.158044 -0.124178,0.04516 -0.259644,0.04516 z"
         id="path1024" />
    </g>
  </g>
  <g
     id="rb">
    <path
       id="path103"
       style="fill:#e9d9f2;fill-opacity:1;stroke:#7109aa;stroke-width:0.499999;stroke-opacity:1"
       d="m 88.21256,44.781343 c -0.1662,0 -0.30024,0.13353 -0.30024,0.29973 v 0.22944 9.99991 c 0,2.76998 2.23023,4.99969 5.00024,4.99969 2.77002,0 5.00023,-2.22971 5.00023,-4.99969 v -9.99991 -0.22944 c 0,-0.1662 -0.13404,-0.29973 -0.30024,-0.29973 z"
       sodipodi:nodetypes="ssccsccsss" />
    <g
       aria-label="B"
       id="text4169-8"
       style="font-weight:600;font-size:5.64444px;line-height:1.25;font-family:'Iosevka Term';text-align:center;text-anchor:middle;fill:#7109aa;stroke-width:0.264583">
      <path
         d="m 91.803419,54.090889 h 1.038577 q 0.197555,0 0.389466,-0.03951 0.197555,-0.03951 0.366889,-0.141111 0.169333,-0.107244 0.287866,-0.265289 0.124178,-0.163689 0.169333,-0.3556 0.0508,-0.197555 0.0508,-0.39511 0,-0.2032 -0.06209,-0.395111 -0.05644,-0.197556 -0.203199,-0.344311 -0.146756,-0.146755 -0.333022,-0.225778 0.146755,-0.09031 0.253999,-0.225777 0.107245,-0.135467 0.146756,-0.299156 0.04516,-0.169333 0.04516,-0.338666 0,-0.180622 -0.04516,-0.3556 -0.03951,-0.174977 -0.141111,-0.327377 -0.09596,-0.1524 -0.248355,-0.254 -0.146756,-0.107244 -0.321734,-0.146755 -0.174977,-0.03951 -0.355599,-0.03951 h -1.038577 z m 1.038577,-2.421465 h -0.428978 v -1.179688 h 0.428978 q 0.146755,0 0.276577,0.07902 0.129822,0.07338 0.174978,0.220133 0.0508,0.141111 0.0508,0.287867 0,0.107244 -0.02822,0.220133 -0.02258,0.107244 -0.09031,0.197555 -0.06773,0.09031 -0.174978,0.135467 -0.1016,0.03951 -0.208844,0.03951 z m 0,1.873954 h -0.428978 v -1.326443 h 0.428978 q 0.129822,0 0.259644,0.03951 0.129822,0.03951 0.225778,0.141111 0.09596,0.09596 0.129822,0.225778 0.03951,0.129822 0.03951,0.259644 0,0.135466 -0.03951,0.265288 -0.03387,0.124178 -0.129822,0.220134 -0.09596,0.09596 -0.225778,0.135466 -0.129822,0.03951 -0.259644,0.03951 z"
         id="path1020" />
    </g>
  </g>
  <g
     id="rl">
    <path
       id="rect108"
       style="fill:#e9d9f2;stroke:#7109aa;stroke-width:0.5"
       d="m 100.82905,28.752586 h 9.4 c 0.1662,0 0.3,0.133801 0.3,0.300001 v 14.399999 c 0,0.1662 -0.1338,0.3 -0.3,0.3 h -9.4 c -0.1662,0 -0.3,-0.1338 -0.3,-0.3 V 29.052587 c 0,-0.1662 0.1338,-0.300001 0.3,-0.300001 z" />
    <g
       aria-label="L"
       id="text4169-92"
       style="font-weight:600;font-size:5.64444px;line-height:1.25;font-family:'Iosevka Term';text-align:center;text-anchor:middle;fill:#7109aa;stroke-width:0.264583">
      <path
         d="m 104.57231,38.32692 h 2.10538 v -0.547511 h -1.49578 v -3.601153 h -0.6096 z"
         id="path1017" />
    </g>
  </g>
  <g
     id="rg">
    <path
       id="path113"
       style="fill:#e9d9f2;fill-opacity:1;stroke:#7109aa;stroke-width:0.499999;stroke-opacity:1"
       d="m 100.82929,44.781353 c -0.1662,0 -0.30024,0.13353 -0.30024,0.29973 v 0.22944 9.99991 c 0,2.76998 2.23021,4.99969 5.0002,4.99969 2.76999,0 5.0002,-2.22971 5.0002,-4.99969 v -9.99991 -0.22944 c 0,-0.1662 -0.13404,-0.29973 -0.30024,-0.29973 z"
       sodipodi:nodetypes="ssccsccsss" />
    <g
       aria-label="G"
       id="text4169-86"
       style="font-weight:600;font-size:5.64444px;line-height:1.25;font-family:'Iosevka Term';text-align:center;text-anchor:middle;fill:#7109aa;stroke-width:0.264583">
      <path
         d="m 105.27807,54.13606 q 0.19191,0 0.36688,-0.08467 0.18063,-0.08467 0.28223,-0.248355 0.10724,-0.163689 0.15804,-0.349956 v 0.637822 h 0.54751 v -2.297287 h -1.10631 v 0.547511 h 0.49671 v 0.603955 q 0,0.112889 -0.0226,0.231422 -0.0226,0.112889 -0.0847,0.214489 -0.0621,0.09596 -0.16934,0.146755 -0.1016,0.0508 -0.22013,0.0508 -0.11853,0 -0.23142,-0.04516 -0.11289,-0.04516 -0.18627,-0.141111 -0.0734,-0.1016 -0.1016,-0.220134 -0.0226,-0.118533 -0.0226,-0.237066 v -1.857021 q 0,-0.118533 0.0226,-0.231422 0.0282,-0.118533 0.096,-0.214489 0.0734,-0.1016 0.18062,-0.146755 0.11289,-0.0508 0.23142,-0.0508 0.13547,0 0.25965,0.05644 0.12982,0.05644 0.19191,0.186267 0.0677,0.124177 0.0677,0.259644 h 0.6096 q 0,-0.220133 -0.079,-0.423333 -0.079,-0.208844 -0.24271,-0.3556 -0.16369,-0.1524 -0.37818,-0.208844 -0.21449,-0.06209 -0.42898,-0.06209 -0.18626,0 -0.37253,0.04516 -0.18627,0.03951 -0.33867,0.1524 -0.1524,0.112888 -0.254,0.276577 -0.096,0.158044 -0.13546,0.344311 -0.0395,0.186267 -0.0395,0.372533 v 1.857021 q 0,0.169333 0.0226,0.338666 0.0282,0.163689 0.0903,0.321733 0.0677,0.158045 0.18063,0.287867 0.11853,0.124178 0.27657,0.186266 0.16369,0.05645 0.33303,0.05645 z"
         id="path1013" />
    </g>
  </g>
  <g
     id="rt">
    <path
       id="rect118"
       style="fill:#e9d9f2;stroke:#7109aa;stroke-width:0.5"
       d="m 113.44571,28.752586 h 9.4 c 0.1662,0 0.3,0.133801 0.3,0.300001 v 14.399999 c 0,0.1662 -0.1338,0.3 -0.3,0.3 h -9.4 c -0.1662,0 -0.3,-0.1338 -0.3,-0.3 V 29.052587 c 0,-0.1662 0.1338,-0.300001 0.3,-0.300001 z" />
    <g
       aria-label="T"
       id="text4169-83"
       style="font-weight:600;font-size:5.64444px;line-height:1.25;font-family:'Iosevka Term';text-align:center;text-anchor:middle;fill:#7109aa;stroke-width:0.264583">
      <path
         d="m 117.83808,38.32692 h 0.6096 v -3.601153 h 0.86925 v -0.547511 h -2.34809 v 0.547511 h 0.86924 z"
         id="path1010" />
    </g>
  </g>
  <g
     id="rs">
    <path
       id="path123"
       style="fill:#e9d9f2;fill-opacity:1;stroke:#7109aa;stroke-width:0.499999;stroke-opacity:1"
       d="m 113.44596,44.781353 c -0.1662,0 -0.30024,0.13353 -0.30024,0.29973 v 0.22944 9.99991 c 0,2.76998 2.23021,4.99969 5.00021,4.99969 2.77,0 5.00021,-2.22971 5.00021,-4.99969 v -9.99991 -0.22944 c 0,-0.1662 -0.13404,-0.29973 -0.30024,-0.29973 z"
       sodipodi:nodetypes="ssccsccsss" />
    <g
       aria-label="S"
       id="text4169-80"
       style="font-weight:600;font-size:5.64444px;line-height:1.25;font-family:'Iosevka Term';text-align:center;text-anchor:middle;fill:#7109aa;stroke-width:0.264583">
      <path
         d="m 118.13181,54.13606 q 0.23142,0 0.45155,-0.06773 0.22014,-0.06773 0.38383,-0.231422 0.16933,-0.163688 0.24835,-0.378177 0.0847,-0.220133 0.0847,-0.445911 0,-0.220133 -0.0903,-0.428977 -0.0847,-0.208845 -0.24271,-0.366889 -0.1524,-0.158044 -0.34432,-0.270933 -0.18626,-0.112889 -0.37817,-0.214489 h -0.006 q -0.1524,-0.07338 -0.29351,-0.163689 -0.13547,-0.09595 -0.22013,-0.24271 -0.0847,-0.1524 -0.0847,-0.316089 0,-0.141111 0.0565,-0.276578 0.0564,-0.141111 0.18062,-0.214488 0.12982,-0.07338 0.27658,-0.07338 0.13546,0 0.254,0.06209 0.12417,0.06209 0.18062,0.186266 0.0621,0.124178 0.0621,0.259644 h 0.6096 q 0,-0.214488 -0.079,-0.417688 -0.0734,-0.208844 -0.23142,-0.361244 -0.15804,-0.1524 -0.37253,-0.214489 -0.20885,-0.06209 -0.42333,-0.06209 -0.22578,0 -0.44027,0.06773 -0.21449,0.06773 -0.37253,0.237067 -0.15805,0.163689 -0.23143,0.378177 -0.0734,0.214489 -0.0734,0.440267 0,0.169333 0.0508,0.338666 0.0508,0.163689 0.1524,0.3048 0.1016,0.141111 0.23142,0.254 0.13547,0.112889 0.28222,0.2032 0.14676,0.08467 0.29916,0.163688 0.15804,0.07338 0.3048,0.169334 0.14675,0.09031 0.23706,0.242711 0.096,0.152399 0.096,0.321733 0,0.152399 -0.0677,0.29351 -0.0621,0.141111 -0.2032,0.208845 -0.13546,0.06773 -0.28786,0.06773 -0.13547,0 -0.27094,-0.05644 -0.12982,-0.05645 -0.20319,-0.180622 -0.0677,-0.129823 -0.0677,-0.265289 h -0.6096 q 0,0.220133 0.0847,0.428977 0.0847,0.2032 0.24835,0.3556 0.16934,0.146756 0.38383,0.208844 0.21448,0.05645 0.43462,0.05645 z"
         id="path1006" />
    </g>
  </g>
  <g
     id="rd">
    <path
       id="rect128"
       style="fill:#e9d9f2;stroke:#7109aa;stroke-width:0.5"
       d="m 124.47488,28.752586 h 12.4 c 0.1662,0 0.3,0.133801 0.3,0.300001 v 14.399999 c 0,0.1662 -0.1338,0.3 -0.3,0.3 h -12.4 c -0.1662,0 -0.3,-0.1338 -0.3,-0.3 V 29.052587 c 0,-0.1662 0.1338,-0.300001 0.3,-0.300001 z" />
    <g
       aria-label="D"
       id="text4169-6"
       style="font-weight:600;font-size:5.64444px;line-height:1.25;font-family:'Iosevka Term';text-align:center;text-anchor:middle;fill:#7109aa;stroke-width:0.264583">
      <path
         d="m 129.56575,38.32692 h 0.95391 q 0.2032,0 0.4064,-0.03951 0.2032,-0.04516 0.37818,-0.158044 0.18062,-0.112889 0.29915,-0.282222 0.12418,-0.169333 0.16933,-0.372533 0.0508,-0.2032 0.0508,-0.4064 v -1.631243 q 0,-0.2032 -0.0508,-0.4064 -0.0452,-0.203199 -0.16933,-0.372533 -0.11853,-0.174977 -0.29915,-0.282222 -0.17498,-0.112888 -0.37818,-0.152399 -0.2032,-0.04516 -0.4064,-0.04516 h -0.95391 z m 0.95391,-0.547511 h -0.34431 v -3.053642 h 0.34431 q 0.14111,0 0.27658,0.04516 0.14111,0.03951 0.23706,0.146756 0.1016,0.1016 0.14111,0.242711 0.0395,0.135466 0.0395,0.276577 v 1.631243 q 0,0.141111 -0.0395,0.282222 -0.0395,0.135467 -0.14111,0.242711 -0.0959,0.1016 -0.23706,0.146756 -0.13547,0.03951 -0.27658,0.03951 z"
         id="path1003" />
    </g>
  </g>
  <g
     id="rz">
    <path
       id="path133"
       style="fill:#e9d9f2;fill-opacity:1;stroke:#7109aa;stroke-width:0.499999;stroke-opacity:1"
       d="m 124.47476,44.781293 c -0.1662,0 -0.29972,0.13404 -0.29972,0.30024 v 10.39988 c 0,0.1662 0.13352,0.29972 0.29972,0.29972 h 2.7218 c 0.23584,2.54753 2.36681,4.52893 4.978,4.52893 2.69372,0 4.87685,-2.10879 4.99503,-4.77232 0.003,-0.0183 0.005,-0.037 0.005,-0.0563 v -0.17105 -10.22883 c 0,-0.0727 -0.0255,-0.13939 -0.0682,-0.19121 -0.006,-0.007 -0.0125,-0.0146 -0.0191,-0.0212 -0.0203,-0.0204 -0.0437,-0.0378 -0.0692,-0.0517 -0.0147,-0.008 -0.0305,-0.0147 -0.0465,-0.0202 -0.002,-7.9e-4 -0.005,-0.002 -0.007,-0.003 -1.5e-4,-5e-5 -2.6e-4,5e-5 -5.3e-4,0 -0.0281,-0.009 -0.0579,-0.0134 -0.0889,-0.0134 z"
       sodipodi:nodetypes="cssscscscssssssccc" />
    <g
       aria-label="Z"
       id="text4169-06"
       style="font-weight:600;font-size:5.64444px;line-height:1.25;font-family:'Iosevka Term';text-align:center;text-anchor:middle;fill:#7109aa;stroke-width:0.264583">
      <path
         d="m 129.56567,54.090622 h 2.21262 v -0.547511 h -1.51271 l 1.51271,-3.053642 v -0.547511 h -2.21262 v 0.547511 h 1.51271 l -1.51271,3.053642 z"
         id="path999" />
    </g>
  </g>
  <g
     id="la">
    <path
       id="path138"
       style="fill:#e9d9f2;fill-opacity:1;stroke:#7109aa;stroke-width:0.499999;stroke-opacity:1"
       d="m 38.979501,68.747663 c -0.1662,0 -0.30024,0.13353 -0.30024,0.29973 v 0.22944 9.99991 c 0,2.76998 2.23021,4.99969 5.00021,4.99969 2.77,0 5.00021,-2.22971 5.00021,-4.99969 v -9.99991 -0.22944 c 0,-0.1662 -0.13404,-0.29973 -0.30024,-0.29973 z"
       sodipodi:nodetypes="ssccsccsss" />
    <g
       aria-label="A"
       id="text4169-90"
       style="font-weight:600;font-size:5.64444px;line-height:1.25;font-family:'Iosevka Term';text-align:center;text-anchor:middle;fill:#7109aa;stroke-width:0.264583">
      <path
         d="m 42.463089,78.057213 h 0.626533 l 0.174977,-0.948266 h 0.824089 l 0.180622,0.948266 h 0.620888 l -0.863599,-4.148664 h -0.699911 z m 0.90311,-1.495777 0.237067,-1.269999 q 0.01693,-0.09596 0.03387,-0.191911 0.02258,-0.1016 0.03951,-0.2032 0.01693,0.1016 0.03387,0.2032 0.02258,0.09596 0.03951,0.191911 l 0.237067,1.269999 z"
         id="path996" />
    </g>
  </g>
  <g
     id="lo">
    <path
       id="path143"
       style="fill:#e9d9f2;fill-opacity:1;stroke:#7109aa;stroke-width:0.499999;stroke-opacity:1"
       d="m 51.596167,68.747673 c -0.1662,0 -0.30024,0.13353 -0.30024,0.29973 v 0.22944 9.99991 c 0,2.76998 2.23021,4.99969 5.00021,4.99969 2.77,0 5.00021,-2.22971 5.00021,-4.99969 v -9.99991 -0.22944 c 0,-0.1662 -0.13404,-0.29973 -0.30024,-0.29973 z"
       sodipodi:nodetypes="ssccsccsss" />
    <g
       aria-label="O"
       id="text4169-73"
       style="font-weight:600;font-size:5.64444px;line-height:1.25;font-family:'Iosevka Term';text-align:center;text-anchor:middle;fill:#7109aa;stroke-width:0.264583">
      <path
         d="m 56.293312,78.102376 q 0.191911,0 0.372533,-0.04516 0.186267,-0.04515 0.338667,-0.152399 0.158044,-0.112889 0.259644,-0.270934 0.1016,-0.163688 0.141111,-0.349955 0.03951,-0.186266 0.03951,-0.372533 v -1.857021 q 0,-0.191911 -0.03951,-0.372533 -0.03951,-0.186266 -0.141111,-0.344311 -0.1016,-0.163688 -0.259644,-0.276577 -0.1524,-0.112889 -0.338667,-0.1524 -0.180622,-0.04516 -0.372533,-0.04516 -0.186266,0 -0.372533,0.04516 -0.186267,0.03951 -0.344311,0.1524 -0.1524,0.112889 -0.254,0.276577 -0.1016,0.158045 -0.141111,0.344311 -0.03951,0.180622 -0.03951,0.372533 v 1.857021 q 0,0.186267 0.03951,0.372533 0.03951,0.186267 0.141111,0.349955 0.1016,0.158045 0.254,0.270934 0.158044,0.107244 0.344311,0.152399 0.186267,0.04516 0.372533,0.04516 z m 0,-0.547511 q -0.118533,0 -0.231422,-0.04516 -0.112889,-0.04516 -0.186267,-0.141111 -0.07338,-0.1016 -0.101599,-0.220133 -0.02258,-0.118534 -0.02258,-0.237067 v -1.857021 q 0,-0.118533 0.02258,-0.237066 0.02822,-0.118533 0.101599,-0.214489 0.07338,-0.1016 0.186267,-0.146755 0.112889,-0.04516 0.231422,-0.04516 0.118533,0 0.231422,0.04516 0.112889,0.04515 0.186267,0.146755 0.07338,0.09596 0.09595,0.214489 0.02822,0.118533 0.02822,0.237066 v 1.857021 q 0,0.118533 -0.02822,0.237067 -0.02258,0.118533 -0.09595,0.220133 -0.07338,0.09596 -0.186267,0.141111 -0.112889,0.04516 -0.231422,0.04516 z"
         id="path993" />
    </g>
  </g>
  <g
     id="re">
    <path
       id="path148"
       style="fill:#e9d9f2;fill-opacity:1;stroke:#7109aa;stroke-width:0.499999;stroke-opacity:1"
       d="m 72.950063,68.747663 c -0.1662,0 -0.30024,0.13353 -0.30024,0.29973 v 0.22944 9.99991 c 0,2.76998 2.23021,4.99969 5.00021,4.99969 2.77,0 5.00021,-2.22971 5.00021,-4.99969 v -9.99991 -0.22944 c 0,-0.1662 -0.13404,-0.29973 -0.30024,-0.29973 z"
       sodipodi:nodetypes="ssccsccsss" />
    <g
       aria-label="E"
       id="text4169-52"
       style="font-weight:600;font-size:5.64444px;line-height:1.25;font-family:'Iosevka Term';text-align:center;text-anchor:middle;fill:#7109aa;stroke-width:0.264583">
      <path
         d="m 76.693299,78.057213 h 2.06022 v -0.547511 h -1.450621 v -1.377243 h 1.117599 V 75.584948 H 77.302898 V 74.45606 h 1.450621 v -0.547511 h -2.06022 z"
         id="path990" />
    </g>
  </g>
  <g
     id="ru">
    <path
       id="path153"
       style="fill:#e9d9f2;fill-opacity:1;stroke:#7109aa;stroke-width:0.499999;stroke-opacity:1"
       d="m 85.566723,68.747663 c -0.1662,0 -0.30024,0.13353 -0.30024,0.29973 v 0.22944 9.99991 c 0,2.76998 2.230217,4.99969 5.000227,4.99969 2.77002,0 5.00023,-2.22971 5.00023,-4.99969 v -9.99991 -0.22944 c 0,-0.1662 -0.13404,-0.29973 -0.30024,-0.29973 z"
       sodipodi:nodetypes="ssccsccsss" />
    <g
       aria-label="U"
       id="text4169-87"
       style="font-weight:600;font-size:5.64444px;line-height:1.25;font-family:'Iosevka Term';text-align:center;text-anchor:middle;fill:#7109aa;stroke-width:0.264583">
      <path
         d="m 90.263893,78.102368 q 0.186267,0 0.366889,-0.04515 0.180622,-0.04516 0.327377,-0.158044 0.1524,-0.118534 0.242711,-0.276578 0.09596,-0.163689 0.129822,-0.344311 0.03951,-0.180622 0.03951,-0.366889 v -3.002842 h -0.609599 v 3.002842 q 0,0.112889 -0.02258,0.231423 -0.02258,0.112888 -0.08467,0.214488 -0.06209,0.09596 -0.169333,0.146756 -0.1016,0.0508 -0.220133,0.0508 -0.112889,0 -0.220133,-0.0508 -0.107244,-0.0508 -0.169333,-0.146756 -0.06209,-0.1016 -0.08467,-0.214488 -0.02258,-0.118534 -0.02258,-0.231423 v -3.002842 h -0.609599 v 3.002842 q 0,0.186267 0.03387,0.366889 0.03951,0.180622 0.129823,0.344311 0.09596,0.158044 0.242711,0.276578 0.152399,0.112888 0.333022,0.158044 0.180622,0.04515 0.366888,0.04515 z"
         id="path987" />
    </g>
  </g>
  <g
     id="num">
    <path
       id="rect158"
       style="fill:#e9d9f2;stroke:#7109aa;stroke-width:0.5"
       d="M 11.100106,20.723558 H 136.90011 c 0.1662,0 0.3,0.133801 0.3,0.300001 v 6.399999 c 0,0.1662 -0.1338,0.3 -0.3,0.3 H 11.100106 c -0.1662,0 -0.3,-0.1338 -0.3,-0.3 v -6.399999 c 0,-0.1662 0.1338,-0.300001 0.3,-0.300001 z" />
    <g
       aria-label="#"
       id="text4169-04"
       style="font-weight:600;font-size:5.64444px;line-height:1.25;font-family:'Iosevka Term';text-align:center;text-anchor:middle;fill:#7109aa;stroke-width:0.264583">
      <path
         d="m 73.144966,26.698645 h 0.524933 v -1.117599 h 0.654755 v 1.117599 h 0.524933 v -1.117599 h 0.491066 v -0.547511 h -0.491066 v -1.30951 h 0.491066 v -0.547511 h -0.491066 v -1.117599 h -0.524933 v 1.117599 h -0.654755 v -1.117599 h -0.524933 v 1.117599 H 72.6539 v 0.547511 h 0.491066 v 1.30951 H 72.6539 v 0.547511 h 0.491066 z m 0.524933,-1.66511 v -1.30951 h 0.654755 v 1.30951 z"
         id="path984" />
    </g>
  </g>
</svg>
