<?xml version="1.0" encoding="UTF-8"?>
<svg width="148mm" height="105mm" version="1.1" viewBox="0 0 148 105" xmlns="http://www.w3.org/2000/svg">
 <g id="ls_n">
  <path d="m11.1 28.752c-0.1662 0-0.30024 0.13404-0.30024 0.30024v26.258c0 2.77 2.2302 4.9997 5.0002 4.9997 2.77 0 5.0002-2.2297 5.0002-4.9997v-26.258c0-0.1662-0.13404-0.30024-0.30025-0.30024z" fill="#e9d9f2" fill-opacity=".2" stroke="#7109aa" stroke-opacity=".2" stroke-width=".2"/>
 </g>
 <g id="lt_n">
  <path d="m23.717 28.753h9.4c0.1662 0 0.3 0.1338 0.3 0.3v14.4c0 0.1662-0.1338 0.3-0.3 0.3h-9.4c-0.1662 0-0.3-0.1338-0.3-0.3v-14.4c0-0.1662 0.1338-0.3 0.3-0.3z" fill="#e9d9f2" fill-opacity=".2" stroke="#7109aa" stroke-opacity=".2" stroke-width=".2"/>
 </g>
 <g id="lk_n">
  <path d="m23.717 44.781c-0.1662 0-0.30024 0.13353-0.30024 0.29973v10.229c0 2.77 2.2302 4.9997 5.0002 4.9997s5.0002-2.2297 5.0002-4.9997v-10.229c0-0.1662-0.13404-0.29973-0.30024-0.29973z" fill="#e9d9f2" fill-opacity=".2" stroke="#7109aa" stroke-opacity=".2" stroke-width=".2"/>
 </g>
 <g id="lp_n">
  <path d="m36.333 28.753h9.4c0.1662 0 0.3 0.1338 0.3 0.3v14.4c0 0.1662-0.1338 0.3-0.3 0.3h-9.4c-0.1662 0-0.3-0.1338-0.3-0.3v-14.4c0-0.1662 0.1338-0.3 0.3-0.3z" fill="#e9d9f2" fill-opacity=".2" stroke="#7109aa" stroke-opacity=".2" stroke-width=".2"/>
 </g>
 <g id="lw_n">
  <path d="m36.334 44.781c-0.1662 0-0.30024 0.13353-0.30024 0.29973v10.229c0 2.77 2.2302 4.9997 5.0002 4.9997s5.0002-2.2297 5.0002-4.9997v-10.229c0-0.1662-0.13404-0.29973-0.30024-0.29973z" fill="#e9d9f2" fill-opacity=".2" stroke="#7109aa" stroke-opacity=".2" stroke-width=".2"/>
 </g>
 <g id="lh_n">
  <path d="m48.95 28.753h9.4c0.1662 0 0.3 0.1338 0.3 0.3v14.4c0 0.1662-0.1338 0.3-0.3 0.3h-9.4c-0.1662 0-0.3-0.1338-0.3-0.3v-14.4c0-0.1662 0.1338-0.3 0.3-0.3z" fill="#e9d9f2" fill-opacity=".2" stroke="#7109aa" stroke-opacity=".2" stroke-width=".2"/>
 </g>
 <g id="lr_n">
  <path d="m48.95 44.781c-0.1662 0-0.30024 0.13353-0.30024 0.29973v10.229c0 2.77 2.2302 4.9997 5.0002 4.9997s5.0002-2.2297 5.0002-4.9997v-10.229c0-0.1662-0.13404-0.29973-0.30024-0.29973z" fill="#e9d9f2" fill-opacity=".2" stroke="#7109aa" stroke-opacity=".2" stroke-width=".2"/>
 </g>
 <g id="star_n">
  <path d="m61.567 28.752c-0.1662 0-0.30024 0.13404-0.30024 0.30024v26.258c0 2.77 2.2302 4.9997 5.0002 4.9997 2.6209 0 4.757-1.9966 4.9795-4.5579h2.7202c0.16621 0 0.29972-0.13404 0.29972-0.30024v-26.4c0-0.1662-0.13352-0.29972-0.29972-0.29972z" fill="#e9d9f2" fill-opacity=".2" stroke="#7109aa" stroke-opacity=".2" stroke-width=".2"/>
 </g>
 <g id="rf_n">
  <path d="m75.596 28.753h9.4c0.1662 0 0.3 0.1338 0.3 0.3v14.4c0 0.1662-0.1338 0.3-0.3 0.3h-9.4c-0.1662 0-0.3-0.1338-0.3-0.3v-14.4c0-0.1662 0.1338-0.3 0.3-0.3z" fill="#e9d9f2" fill-opacity=".2" stroke="#7109aa" stroke-opacity=".2" stroke-width=".2"/>
 </g>
 <g id="rr_n">
  <path d="m75.596 44.781c-0.1662 0-0.30024 0.13353-0.30024 0.29973v10.229c0 2.77 2.2302 4.9997 5.0002 4.9997s5.0002-2.2297 5.0002-4.9997v-10.229c0-0.1662-0.13404-0.29973-0.30024-0.29973z" fill="#e9d9f2" fill-opacity=".2" stroke="#7109aa" stroke-opacity=".2" stroke-width=".2"/>
 </g>
 <g id="rp_n">
  <path d="m88.212 28.753h9.4c0.1662 0 0.3 0.1338 0.3 0.3v14.4c0 0.1662-0.1338 0.3-0.3 0.3h-9.4c-0.1662 0-0.3-0.1338-0.3-0.3v-14.4c0-0.1662 0.1338-0.3 0.3-0.3z" fill="#e9d9f2" fill-opacity=".2" stroke="#7109aa" stroke-opacity=".2" stroke-width=".2"/>
 </g>
 <g id="rb_n">
  <path d="m88.213 44.781c-0.1662 0-0.30024 0.13353-0.30024 0.29973v10.229c0 2.77 2.2302 4.9997 5.0002 4.9997 2.77 0 5.0002-2.2297 5.0002-4.9997v-10.229c0-0.1662-0.13404-0.29973-0.30024-0.29973z" fill="#e9d9f2" fill-opacity=".2" stroke="#7109aa" stroke-opacity=".2" stroke-width=".2"/>
 </g>
 <g id="rl_n">
  <path d="m100.83 28.753h9.4c0.1662 0 0.3 0.1338 0.3 0.3v14.4c0 0.1662-0.1338 0.3-0.3 0.3h-9.4c-0.1662 0-0.3-0.1338-0.3-0.3v-14.4c0-0.1662 0.1338-0.3 0.3-0.3z" fill="#e9d9f2" fill-opacity=".2" stroke="#7109aa" stroke-opacity=".2" stroke-width=".2"/>
 </g>
 <g id="rg_n">
  <path d="m100.83 44.781c-0.1662 0-0.30024 0.13353-0.30024 0.29973v10.229c0 2.77 2.2302 4.9997 5.0002 4.9997s5.0002-2.2297 5.0002-4.9997v-10.229c0-0.1662-0.13404-0.29973-0.30024-0.29973z" fill="#e9d9f2" fill-opacity=".2" stroke="#7109aa" stroke-opacity=".2" stroke-width=".2"/>
 </g>
 <g id="rt_n">
  <path d="m113.45 28.753h9.4c0.1662 0 0.3 0.1338 0.3 0.3v14.4c0 0.1662-0.1338 0.3-0.3 0.3h-9.4c-0.1662 0-0.3-0.1338-0.3-0.3v-14.4c0-0.1662 0.1338-0.3 0.3-0.3z" fill="#e9d9f2" fill-opacity=".2" stroke="#7109aa" stroke-opacity=".2" stroke-width=".2"/>
 </g>
 <g id="rs_n">
  <path d="m113.45 44.781c-0.1662 0-0.30024 0.13353-0.30024 0.29973v10.229c0 2.77 2.2302 4.9997 5.0002 4.9997s5.0002-2.2297 5.0002-4.9997v-10.229c0-0.1662-0.13404-0.29973-0.30024-0.29973z" fill="#e9d9f2" fill-opacity=".2" stroke="#7109aa" stroke-opacity=".2" stroke-width=".2"/>
 </g>
 <g id="rd_n">
  <path d="m124.47 28.753h12.4c0.1662 0 0.3 0.1338 0.3 0.3v14.4c0 0.1662-0.1338 0.3-0.3 0.3h-12.4c-0.1662 0-0.3-0.1338-0.3-0.3v-14.4c0-0.1662 0.1338-0.3 0.3-0.3z" fill="#e9d9f2" fill-opacity=".2" stroke="#7109aa" stroke-opacity=".2" stroke-width=".2"/>
 </g>
 <g id="rz_n">
  <path d="m124.47 44.781c-0.1662 0-0.29972 0.13404-0.29972 0.30024v10.4c0 0.1662 0.13352 0.29972 0.29972 0.29972h2.7218c0.23584 2.5475 2.3668 4.5289 4.978 4.5289 2.6937 0 4.8768-2.1088 4.995-4.7723 3e-3 -0.0183 5e-3 -0.037 5e-3 -0.0563v-10.4c0-0.0727-0.0255-0.13939-0.0682-0.19121-6e-3 -7e-3 -0.0125-0.0146-0.0191-0.0212-0.0203-0.0204-0.0437-0.0378-0.0692-0.0517-0.0147-8e-3 -0.0305-0.0147-0.0465-0.0202-2e-3 -7.9e-4 -5e-3 -2e-3 -7e-3 -3e-3 -1.5e-4 -5e-5 -2.6e-4 5e-5 -5.3e-4 0-0.0281-9e-3 -0.0579-0.0134-0.0889-0.0134z" fill="#e9d9f2" fill-opacity=".2" stroke="#7109aa" stroke-opacity=".2" stroke-width=".2"/>
 </g>
 <g id="la_n">
  <path d="m38.98 68.748c-0.1662 0-0.30024 0.13353-0.30024 0.29973v10.229c0 2.77 2.2302 4.9997 5.0002 4.9997s5.0002-2.2297 5.0002-4.9997v-10.229c0-0.1662-0.13404-0.29973-0.30024-0.29973z" fill="#e9d9f2" fill-opacity=".2" stroke="#7109aa" stroke-opacity=".2" stroke-width=".2"/>
 </g>
 <g id="lo_n">
  <path d="m51.596 68.748c-0.1662 0-0.30024 0.13353-0.30024 0.29973v10.229c0 2.77 2.2302 4.9997 5.0002 4.9997s5.0002-2.2297 5.0002-4.9997v-10.229c0-0.1662-0.13404-0.29973-0.30024-0.29973z" fill="#e9d9f2" fill-opacity=".2" stroke="#7109aa" stroke-opacity=".2" stroke-width=".2"/>
 </g>
 <g id="re_n">
  <path d="m72.95 68.748c-0.1662 0-0.30024 0.13353-0.30024 0.29973v10.229c0 2.77 2.2302 4.9997 5.0002 4.9997s5.0002-2.2297 5.0002-4.9997v-10.229c0-0.1662-0.13404-0.29973-0.30024-0.29973z" fill="#e9d9f2" fill-opacity=".2" stroke="#7109aa" stroke-opacity=".2" stroke-width=".2"/>
 </g>
 <g id="ru_n">
  <path d="m85.567 68.748c-0.1662 0-0.30024 0.13353-0.30024 0.29973v10.229c0 2.77 2.2302 4.9997 5.0002 4.9997 2.77 0 5.0002-2.2297 5.0002-4.9997v-10.229c0-0.1662-0.13404-0.29973-0.30024-0.29973z" fill="#e9d9f2" fill-opacity=".2" stroke="#7109aa" stroke-opacity=".2" stroke-width=".2"/>
 </g>
 <g id="num_n">
  <path d="m11.1 20.724h125.8c0.1662 0 0.3 0.1338 0.3 0.3v6.4c0 0.1662-0.1338 0.3-0.3 0.3h-125.8c-0.1662 0-0.3-0.1338-0.3-0.3v-6.4c0-0.1662 0.1338-0.3 0.3-0.3z" fill="#e9d9f2" fill-opacity=".2" stroke="#7109aa" stroke-opacity=".2" stroke-width=".2"/>
 </g>
 <g id="ls">
  <path d="m11.1 28.752c-0.1662 0-0.30024 0.13404-0.30024 0.30024v26.258c0 2.77 2.2302 4.9997 5.0002 4.9997 2.77 0 5.0002-2.2297 5.0002-4.9997v-26.258c0-0.1662-0.13404-0.30024-0.30025-0.30024z" fill="#e9d9f2" stroke="#7109aa" stroke-width=".5"/>
  <g fill="#7109aa" stroke-width=".26458" aria-label="S">
   <path d="m15.786 46.651q0.23142 0 0.45156-0.06773t0.38382-0.23142q0.16933-0.16369 0.24836-0.37818 0.08467-0.22013 0.08467-0.44591 0-0.22013-0.09031-0.42898-0.08467-0.20884-0.24271-0.36689-0.1524-0.15804-0.34431-0.27093-0.18627-0.11289-0.37818-0.21449h-0.0056q-0.1524-0.07338-0.29351-0.16369-0.13547-0.09596-0.22013-0.24271-0.08467-0.1524-0.08467-0.31609 0-0.14111 0.05645-0.27658 0.05644-0.14111 0.18062-0.21449 0.12982-0.07338 0.27658-0.07338 0.13547 0 0.254 0.06209 0.12418 0.06209 0.18062 0.18627 0.06209 0.12418 0.06209 0.25964h0.6096q0-0.21449-0.07902-0.41769-0.07338-0.20884-0.23142-0.36124-0.15804-0.1524-0.37253-0.21449-0.20884-0.06209-0.42333-0.06209-0.22578 0-0.44027 0.06773t-0.37253 0.23707q-0.15804 0.16369-0.23142 0.37818-0.07338 0.21449-0.07338 0.44027 0 0.16933 0.0508 0.33867 0.0508 0.16369 0.1524 0.3048t0.23142 0.254q0.13547 0.11289 0.28222 0.2032 0.14676 0.08467 0.29916 0.16369 0.15804 0.07338 0.3048 0.16933 0.14676 0.09031 0.23707 0.24271 0.09596 0.1524 0.09596 0.32173 0 0.1524-0.06773 0.29351-0.06209 0.14111-0.2032 0.20884-0.13547 0.06773-0.28787 0.06773-0.13547 0-0.27093-0.05644-0.12982-0.05644-0.2032-0.18062-0.06773-0.12982-0.06773-0.26529h-0.6096q0 0.22013 0.08467 0.42898 0.08467 0.2032 0.24836 0.3556 0.16933 0.14676 0.38382 0.20884 0.21449 0.05644 0.43462 0.05644z"/>
  </g>
 </g>
 <g id="lt">
  <path d="m23.717 28.753h9.4c0.1662 0 0.3 0.1338 0.3 0.3v14.4c0 0.1662-0.1338 0.3-0.3 0.3h-9.4c-0.1662 0-0.3-0.1338-0.3-0.3v-14.4c0-0.1662 0.1338-0.3 0.3-0.3z" fill="#e9d9f2" stroke="#7109aa" stroke-width=".5"/>
  <g fill="#7109aa" stroke-width=".26458" aria-label="T">
   <path d="m28.109 38.327h0.6096v-3.6012h0.86924v-0.54751h-2.3481v0.54751h0.86924z"/>
  </g>
 </g>
 <g id="lk">
  <path d="m23.717 44.781c-0.1662 0-0.30024 0.13353-0.30024 0.29973v10.229c0 2.77 2.2302 4.9997 5.0002 4.9997s5.0002-2.2297 5.0002-4.9997v-10.229c0-0.1662-0.13404-0.29973-0.30024-0.29973z" fill="#e9d9f2" stroke="#7109aa" stroke-width=".5"/>
  <g fill="#7109aa" stroke-width=".26458" aria-label="K">
   <path d="m27.398 54.091h0.6096v-1.3039l0.17498-0.32173 0.18062 0.38382 0.58702 1.2418h0.6604l-1.0668-2.2634 1.0668-1.8852h-0.67169l-0.93133 1.7498v-1.7498h-0.6096z"/>
  </g>
 </g>
 <g id="lp">
  <path d="m36.333 28.753h9.4c0.1662 0 0.3 0.1338 0.3 0.3v14.4c0 0.1662-0.1338 0.3-0.3 0.3h-9.4c-0.1662 0-0.3-0.1338-0.3-0.3v-14.4c0-0.1662 0.1338-0.3 0.3-0.3z" fill="#e9d9f2" stroke="#7109aa" stroke-width=".5"/>
  <g fill="#7109aa" stroke-width=".26458" aria-label="P">
   <path d="m40.003 38.327h0.60396v-1.62h0.38947q0.2032 0 0.40076-0.04515 0.19756-0.04516 0.36124-0.15804 0.16933-0.11853 0.27658-0.28787 0.10724-0.17498 0.14676-0.37253 0.04516-0.19756 0.04516-0.40076 0-0.19756-0.04516-0.39511-0.03951-0.2032-0.14676-0.37253-0.10724-0.16933-0.27658-0.28787-0.16369-0.11853-0.36124-0.16369-0.19756-0.04516-0.40076-0.04516h-0.99342zm0.60396-2.1675v-1.4337h0.38947q0.13547 0 0.25964 0.0508 0.12982 0.0508 0.21449 0.15804 0.08467 0.10724 0.11289 0.24271 0.03387 0.12982 0.03387 0.26529 0 0.13547-0.03387 0.27093-0.02822 0.12982-0.11289 0.24271-0.08467 0.10724-0.21449 0.15804-0.12418 0.04516-0.25964 0.04516z"/>
  </g>
 </g>
 <g id="lw">
  <path d="m36.334 44.781c-0.1662 0-0.30024 0.13353-0.30024 0.29973v10.229c0 2.77 2.2302 4.9997 5.0002 4.9997s5.0002-2.2297 5.0002-4.9997v-10.229c0-0.1662-0.13404-0.29973-0.30024-0.29973z" fill="#e9d9f2" stroke="#7109aa" stroke-width=".5"/>
  <g fill="#7109aa" stroke-width=".26458" aria-label="W">
   <path d="m40.218 54.091h0.52493l0.28787-2.3876 0.28787 2.3876h0.52493l0.49107-4.1487h-0.60396l-0.17498 3.3189-0.25964-2.1562h-0.52493l-0.25964 2.1562-0.03387-0.59267-0.14111-2.7263h-0.6096z"/>
  </g>
 </g>
 <g id="lh">
  <path d="m48.95 28.753h9.4c0.1662 0 0.3 0.1338 0.3 0.3v14.4c0 0.1662-0.1338 0.3-0.3 0.3h-9.4c-0.1662 0-0.3-0.1338-0.3-0.3v-14.4c0-0.1662 0.1338-0.3 0.3-0.3z" fill="#e9d9f2" stroke="#7109aa" stroke-width=".5"/>
  <g fill="#7109aa" stroke-width=".26458" aria-label="H">
   <path d="m52.541 38.327h0.6096v-1.857h0.99342v1.857h0.6096v-4.1487h-0.6096v1.7441h-0.99342v-1.7441h-0.6096z"/>
  </g>
 </g>
 <g id="lr">
  <path d="m48.95 44.781c-0.1662 0-0.30024 0.13353-0.30024 0.29973v10.229c0 2.77 2.2302 4.9997 5.0002 4.9997s5.0002-2.2297 5.0002-4.9997v-10.229c0-0.1662-0.13404-0.29973-0.30024-0.29973z" fill="#e9d9f2" stroke="#7109aa" stroke-width=".5"/>
  <g fill="#7109aa" stroke-width=".26458" aria-label="R">
   <path d="m52.541 54.091h0.6096v-1.62h0.24836l0.8636 1.62h0.64347l-0.88618-1.6651q0.18627-0.05644 0.34431-0.17498 0.15804-0.11853 0.25964-0.28787 0.1016-0.17498 0.13547-0.36689 0.03951-0.19191 0.03951-0.38947 0-0.19756-0.03951-0.38947-0.03951-0.19756-0.14111-0.36689-0.1016-0.17498-0.25964-0.29351-0.15804-0.11853-0.3556-0.16369-0.19191-0.0508-0.38947-0.0508h-1.0724zm0.6096-2.1675v-1.4337h0.46284q0.12982 0 0.24836 0.05645 0.12418 0.0508 0.19756 0.16369 0.07902 0.10724 0.1016 0.23707 0.02822 0.12982 0.02822 0.25964t-0.02822 0.25964q-0.02258 0.12982-0.1016 0.24271-0.07338 0.10724-0.19756 0.16369-0.11853 0.0508-0.24836 0.0508z"/>
  </g>
 </g>
 <g id="star">
  <path d="m61.567 28.752c-0.1662 0-0.30024 0.13404-0.30024 0.30024v26.258c0 2.77 2.2302 4.9997 5.0002 4.9997 2.6209 0 4.757-1.9966 4.9795-4.5579h2.7202c0.16621 0 0.29972-0.13404 0.29972-0.30024v-26.4c0-0.1662-0.13352-0.29972-0.29972-0.29972z" fill="#e9d9f2" stroke="#7109aa" stroke-width=".5"/>
  <g fill="#7109aa" stroke-width=".26458" aria-label="*">
   <path d="m67.312 44.562 0.45156-0.68862 0.45156 0.68862 0.49107-0.32173-0.54751-0.67733 0.82409-0.22578-0.18627-0.52493-0.77329 0.29351 0.04516-0.85231h-0.6096l0.04516 0.85231-0.77329-0.29351-0.18627 0.52493 0.82409 0.22578-0.54751 0.67733z"/>
  </g>
 </g>
 <g id="rf">
  <path d="m75.596 28.753h9.4c0.1662 0 0.3 0.1338 0.3 0.3v14.4c0 0.1662-0.1338 0.3-0.3 0.3h-9.4c-0.1662 0-0.3-0.1338-0.3-0.3v-14.4c0-0.1662 0.1338-0.3 0.3-0.3z" fill="#e9d9f2" stroke="#7109aa" stroke-width=".5"/>
  <g fill="#7109aa" stroke-width=".26458" aria-label="F">
   <path d="m79.339 38.327h0.6096v-1.9248h1.1176v-0.54751h-1.1176v-1.1289h1.4506v-0.54751h-2.0602z"/>
  </g>
 </g>
 <g id="rr">
  <path d="m75.596 44.781c-0.1662 0-0.30024 0.13353-0.30024 0.29973v10.229c0 2.77 2.2302 4.9997 5.0002 4.9997s5.0002-2.2297 5.0002-4.9997v-10.229c0-0.1662-0.13404-0.29973-0.30024-0.29973z" fill="#e9d9f2" stroke="#7109aa" stroke-width=".5"/>
  <g fill="#7109aa" stroke-width=".26458" aria-label="R">
   <path d="m79.187 54.091h0.6096v-1.62h0.24836l0.8636 1.62h0.64347l-0.88618-1.6651q0.18627-0.05644 0.34431-0.17498 0.15804-0.11853 0.25964-0.28787 0.1016-0.17498 0.13547-0.36689 0.03951-0.19191 0.03951-0.38947t-0.03951-0.38947q-0.03951-0.19756-0.14111-0.36689-0.1016-0.17498-0.25964-0.29351t-0.3556-0.16369q-0.19191-0.0508-0.38947-0.0508h-1.0724zm0.6096-2.1675v-1.4337h0.46284q0.12982 0 0.24836 0.05644 0.12418 0.0508 0.19756 0.16369 0.07902 0.10724 0.1016 0.23707 0.02822 0.12982 0.02822 0.25964t-0.02822 0.25964q-0.02258 0.12982-0.1016 0.24271-0.07338 0.10724-0.19756 0.16369-0.11853 0.0508-0.24836 0.0508z"/>
  </g>
 </g>
 <g id="rp">
  <path d="m88.212 28.753h9.4c0.1662 0 0.3 0.1338 0.3 0.3v14.4c0 0.1662-0.1338 0.3-0.3 0.3h-9.4c-0.1662 0-0.3-0.1338-0.3-0.3v-14.4c0-0.1662 0.1338-0.3 0.3-0.3z" fill="#e9d9f2" stroke="#7109aa" stroke-width=".5"/>
  <g fill="#7109aa" stroke-width=".26458" aria-label="P">
   <path d="m91.882 38.327h0.60396v-1.62h0.38947q0.2032 0 0.40076-0.04515 0.19756-0.04516 0.36124-0.15804 0.16933-0.11853 0.27658-0.28787 0.10724-0.17498 0.14676-0.37253 0.04516-0.19756 0.04516-0.40076 0-0.19756-0.04516-0.39511-0.03951-0.2032-0.14676-0.37253-0.10724-0.16934-0.27658-0.28787-0.16369-0.11853-0.36124-0.16369-0.19756-0.045156-0.40076-0.045156h-0.99342zm0.60396-2.1675v-1.4337h0.38947q0.13547 0 0.25964 0.0508 0.12982 0.0508 0.21449 0.15804 0.08467 0.10724 0.11289 0.24271 0.03387 0.12982 0.03387 0.26529 0 0.13547-0.03387 0.27093-0.02822 0.12982-0.11289 0.24271-0.08467 0.10724-0.21449 0.15804-0.12418 0.04516-0.25964 0.04516z"/>
  </g>
 </g>
 <g id="rb">
  <path d="m88.213 44.781c-0.1662 0-0.30024 0.13353-0.30024 0.29973v10.229c0 2.77 2.2302 4.9997 5.0002 4.9997 2.77 0 5.0002-2.2297 5.0002-4.9997v-10.229c0-0.1662-0.13404-0.29973-0.30024-0.29973z" fill="#e9d9f2" stroke="#7109aa" stroke-width=".5"/>
  <g fill="#7109aa" stroke-width=".26458" aria-label="B">
   <path d="m91.803 54.091h1.0386q0.19756 0 0.38947-0.03951 0.19756-0.03951 0.36689-0.14111 0.16933-0.10724 0.28787-0.26529 0.12418-0.16369 0.16933-0.3556 0.0508-0.19756 0.0508-0.39511 0-0.2032-0.06209-0.39511-0.05644-0.19756-0.2032-0.34431-0.14676-0.14676-0.33302-0.22578 0.14676-0.09031 0.254-0.22578 0.10724-0.13547 0.14676-0.29916 0.04516-0.16933 0.04516-0.33867 0-0.18062-0.04516-0.3556-0.03951-0.17498-0.14111-0.32738-0.09596-0.1524-0.24836-0.254-0.14676-0.10724-0.32173-0.14676-0.17498-0.03951-0.3556-0.03951h-1.0386zm1.0386-2.4215h-0.42898v-1.1797h0.42898q0.14676 0 0.27658 0.07902 0.12982 0.07338 0.17498 0.22013 0.0508 0.14111 0.0508 0.28787 0 0.10724-0.02822 0.22013-0.02258 0.10724-0.09031 0.19756-0.06773 0.09031-0.17498 0.13547-0.1016 0.03951-0.20884 0.03951zm0 1.874h-0.42898v-1.3264h0.42898q0.12982 0 0.25964 0.03951t0.22578 0.14111q0.09596 0.09596 0.12982 0.22578 0.03951 0.12982 0.03951 0.25964 0 0.13547-0.03951 0.26529-0.03387 0.12418-0.12982 0.22013-0.09596 0.09596-0.22578 0.13547-0.12982 0.03951-0.25964 0.03951z"/>
  </g>
 </g>
 <g id="rl">
  <path d="m100.83 28.753h9.4c0.1662 0 0.3 0.1338 0.3 0.3v14.4c0 0.1662-0.1338 0.3-0.3 0.3h-9.4c-0.1662 0-0.3-0.1338-0.3-0.3v-14.4c0-0.1662 0.1338-0.3 0.3-0.3z" fill="#e9d9f2" stroke="#7109aa" stroke-width=".5"/>
  <g fill="#7109aa" stroke-width=".26458" aria-label="L">
   <path d="m104.57 38.327h2.1054v-0.54751h-1.4958v-3.6012h-0.6096z"/>
  </g>
 </g>
 <g id="rg">
  <path d="m100.83 44.781c-0.1662 0-0.30024 0.13353-0.30024 0.29973v10.229c0 2.77 2.2302 4.9997 5.0002 4.9997s5.0002-2.2297 5.0002-4.9997v-10.229c0-0.1662-0.13404-0.29973-0.30024-0.29973z" fill="#e9d9f2" stroke="#7109aa" stroke-width=".5"/>
  <g fill="#7109aa" stroke-width=".26458" aria-label="G">
   <path d="m105.28 54.136q0.19191 0 0.36688-0.08467 0.18063-0.08467 0.28223-0.24836 0.10724-0.16369 0.15804-0.34996v0.63782h0.54751v-2.2973h-1.1063v0.54751h0.49671v0.60396q0 0.11289-0.0226 0.23142-0.0226 0.11289-0.0847 0.21449-0.0621 0.09596-0.16934 0.14676-0.1016 0.0508-0.22013 0.0508t-0.23142-0.04516-0.18627-0.14111q-0.0734-0.1016-0.1016-0.22013-0.0226-0.11853-0.0226-0.23707v-1.857q0-0.11853 0.0226-0.23142 0.0282-0.11853 0.096-0.21449 0.0734-0.1016 0.18062-0.14676 0.11289-0.0508 0.23142-0.0508 0.13547 0 0.25965 0.05644 0.12982 0.05644 0.19191 0.18627 0.0677 0.12418 0.0677 0.25964h0.6096q0-0.22013-0.079-0.42333-0.079-0.20884-0.24271-0.3556-0.16369-0.1524-0.37818-0.20884-0.21449-0.06209-0.42898-0.06209-0.18626 0-0.37253 0.04516-0.18627 0.03951-0.33867 0.1524-0.1524 0.11289-0.254 0.27658-0.096 0.15804-0.13546 0.34431-0.0395 0.18627-0.0395 0.37253v1.857q0 0.16933 0.0226 0.33867 0.0282 0.16369 0.0903 0.32173 0.0677 0.15804 0.18063 0.28787 0.11853 0.12418 0.27657 0.18627 0.16369 0.05645 0.33303 0.05645z"/>
  </g>
 </g>
 <g id="rt">
  <path d="m113.45 28.753h9.4c0.1662 0 0.3 0.1338 0.3 0.3v14.4c0 0.1662-0.1338 0.3-0.3 0.3h-9.4c-0.1662 0-0.3-0.1338-0.3-0.3v-14.4c0-0.1662 0.1338-0.3 0.3-0.3z" fill="#e9d9f2" stroke="#7109aa" stroke-width=".5"/>
  <g fill="#7109aa" stroke-width=".26458" aria-label="T">
   <path d="m117.84 38.327h0.6096v-3.6012h0.86925v-0.54751h-2.3481v0.54751h0.86924z"/>
  </g>
 </g>
 <g id="rs">
  <path d="m113.45 44.781c-0.1662 0-0.30024 0.13353-0.30024 0.29973v10.229c0 2.77 2.2302 4.9997 5.0002 4.9997s5.0002-2.2297 5.0002-4.9997v-10.229c0-0.1662-0.13404-0.29973-0.30024-0.29973z" fill="#e9d9f2" stroke="#7109aa" stroke-width=".5"/>
  <g fill="#7109aa" stroke-width=".26458" aria-label="S">
   <path d="m118.13 54.136q0.23142 0 0.45155-0.06773 0.22014-0.06773 0.38383-0.23142 0.16933-0.16369 0.24835-0.37818 0.0847-0.22013 0.0847-0.44591 0-0.22013-0.0903-0.42898-0.0847-0.20884-0.24271-0.36689-0.1524-0.15804-0.34432-0.27093-0.18626-0.11289-0.37817-0.21449h-6e-3q-0.1524-0.07338-0.29351-0.16369-0.13547-0.09595-0.22013-0.24271-0.0847-0.1524-0.0847-0.31609 0-0.14111 0.0565-0.27658 0.0564-0.14111 0.18062-0.21449 0.12982-0.07338 0.27658-0.07338 0.13546 0 0.254 0.06209 0.12417 0.06209 0.18062 0.18627 0.0621 0.12418 0.0621 0.25964h0.6096q0-0.21449-0.079-0.41769-0.0734-0.20884-0.23142-0.36124-0.15804-0.1524-0.37253-0.21449-0.20885-0.06209-0.42333-0.06209-0.22578 0-0.44027 0.06773t-0.37253 0.23707q-0.15805 0.16369-0.23143 0.37818-0.0734 0.21449-0.0734 0.44027 0 0.16933 0.0508 0.33867 0.0508 0.16369 0.1524 0.3048t0.23142 0.254q0.13547 0.11289 0.28222 0.2032 0.14676 0.08467 0.29916 0.16369 0.15804 0.07338 0.3048 0.16933 0.14675 0.09031 0.23706 0.24271 0.096 0.1524 0.096 0.32173 0 0.1524-0.0677 0.29351-0.0621 0.14111-0.2032 0.20884-0.13546 0.06773-0.28786 0.06773-0.13547 0-0.27094-0.05644-0.12982-0.05645-0.20319-0.18062-0.0677-0.12982-0.0677-0.26529h-0.6096q0 0.22013 0.0847 0.42898 0.0847 0.2032 0.24835 0.3556 0.16934 0.14676 0.38383 0.20884 0.21448 0.05645 0.43462 0.05645z"/>
  </g>
 </g>
 <g id="rd">
  <path d="m124.47 28.753h12.4c0.1662 0 0.3 0.1338 0.3 0.3v14.4c0 0.1662-0.1338 0.3-0.3 0.3h-12.4c-0.1662 0-0.3-0.1338-0.3-0.3v-14.4c0-0.1662 0.1338-0.3 0.3-0.3z" fill="#e9d9f2" stroke="#7109aa" stroke-width=".5"/>
  <g fill="#7109aa" stroke-width=".26458" aria-label="D">
   <path d="m129.57 38.327h0.95391q0.2032 0 0.4064-0.03951 0.2032-0.04516 0.37818-0.15804 0.18062-0.11289 0.29915-0.28222 0.12418-0.16933 0.16933-0.37253 0.0508-0.2032 0.0508-0.4064v-1.6312q0-0.2032-0.0508-0.4064-0.0452-0.2032-0.16933-0.37253-0.11853-0.17498-0.29915-0.28222-0.17498-0.11289-0.37818-0.1524-0.2032-0.04516-0.4064-0.04516h-0.95391zm0.95391-0.54751h-0.34431v-3.0536h0.34431q0.14111 0 0.27658 0.04516 0.14111 0.03951 0.23706 0.14676 0.1016 0.1016 0.14111 0.24271 0.0395 0.13547 0.0395 0.27658v1.6312q0 0.14111-0.0395 0.28222-0.0395 0.13547-0.14111 0.24271-0.0959 0.1016-0.23706 0.14676-0.13547 0.03951-0.27658 0.03951z"/>
  </g>
 </g>
 <g id="rz">
  <path d="m124.47 44.781c-0.1662 0-0.29972 0.13404-0.29972 0.30024v10.4c0 0.1662 0.13352 0.29972 0.29972 0.29972h2.7218c0.23584 2.5475 2.3668 4.5289 4.978 4.5289 2.6937 0 4.8768-2.1088 4.995-4.7723 3e-3 -0.0183 5e-3 -0.037 5e-3 -0.0563v-10.4c0-0.0727-0.0255-0.13939-0.0682-0.19121-6e-3 -7e-3 -0.0125-0.0146-0.0191-0.0212-0.0203-0.0204-0.0437-0.0378-0.0692-0.0517-0.0147-8e-3 -0.0305-0.0147-0.0465-0.0202-2e-3 -7.9e-4 -5e-3 -2e-3 -7e-3 -3e-3 -1.5e-4 -5e-5 -2.6e-4 5e-5 -5.3e-4 0-0.0281-9e-3 -0.0579-0.0134-0.0889-0.0134z" fill="#e9d9f2" stroke="#7109aa" stroke-width=".5"/>
  <g fill="#7109aa" stroke-width=".26458" aria-label="Z">
   <path d="m129.57 54.091h2.2126v-0.54751h-1.5127l1.5127-3.0536v-0.54751h-2.2126v0.54751h1.5127l-1.5127 3.0536z"/>
  </g>
 </g>
 <g id="la">
  <path d="m38.98 68.748c-0.1662 0-0.30024 0.13353-0.30024 0.29973v10.229c0 2.77 2.2302 4.9997 5.0002 4.9997s5.0002-2.2297 5.0002-4.9997v-10.229c0-0.1662-0.13404-0.29973-0.30024-0.29973z" fill="#e9d9f2" stroke="#7109aa" stroke-width=".5"/>
  <g fill="#7109aa" stroke-width=".26458" aria-label="A">
   <path d="m42.463 78.057h0.62653l0.17498-0.94827h0.82409l0.18062 0.94827h0.62089l-0.8636-4.1487h-0.69991zm0.90311-1.4958 0.23707-1.27q0.01693-0.09596 0.03387-0.19191 0.02258-0.1016 0.03951-0.2032 0.01693 0.1016 0.03387 0.2032 0.02258 0.09596 0.03951 0.19191l0.23707 1.27z"/>
  </g>
 </g>
 <g id="lo">
  <path d="m51.596 68.748c-0.1662 0-0.30024 0.13353-0.30024 0.29973v10.229c0 2.77 2.2302 4.9997 5.0002 4.9997s5.0002-2.2297 5.0002-4.9997v-10.229c0-0.1662-0.13404-0.29973-0.30024-0.29973z" fill="#e9d9f2" stroke="#7109aa" stroke-width=".5"/>
  <g fill="#7109aa" stroke-width=".26458" aria-label="O">
   <path d="m56.293 78.102q0.19191 0 0.37253-0.04516 0.18627-0.04515 0.33867-0.1524 0.15804-0.11289 0.25964-0.27093 0.1016-0.16369 0.14111-0.34996 0.03951-0.18627 0.03951-0.37253v-1.857q0-0.19191-0.03951-0.37253-0.03951-0.18627-0.14111-0.34431-0.1016-0.16369-0.25964-0.27658-0.1524-0.11289-0.33867-0.1524-0.18062-0.04516-0.37253-0.04516-0.18627 0-0.37253 0.04516-0.18627 0.03951-0.34431 0.1524-0.1524 0.11289-0.254 0.27658-0.1016 0.15804-0.14111 0.34431-0.03951 0.18062-0.03951 0.37253v1.857q0 0.18627 0.03951 0.37253 0.03951 0.18627 0.14111 0.34996 0.1016 0.15804 0.254 0.27093 0.15804 0.10724 0.34431 0.1524 0.18627 0.04516 0.37253 0.04516zm0-0.54751q-0.11853 0-0.23142-0.04516t-0.18627-0.14111q-0.07338-0.1016-0.1016-0.22013-0.02258-0.11853-0.02258-0.23707v-1.857q0-0.11853 0.02258-0.23707 0.02822-0.11853 0.1016-0.21449 0.07338-0.1016 0.18627-0.14676 0.11289-0.04516 0.23142-0.04516t0.23142 0.04516q0.11289 0.04515 0.18627 0.14676 0.07338 0.09596 0.09595 0.21449 0.02822 0.11853 0.02822 0.23707v1.857q0 0.11853-0.02822 0.23707-0.02258 0.11853-0.09595 0.22013-0.07338 0.09596-0.18627 0.14111-0.11289 0.04516-0.23142 0.04516z"/>
  </g>
 </g>
 <g id="re">
  <path d="m72.95 68.748c-0.1662 0-0.30024 0.13353-0.30024 0.29973v10.229c0 2.77 2.2302 4.9997 5.0002 4.9997s5.0002-2.2297 5.0002-4.9997v-10.229c0-0.1662-0.13404-0.29973-0.30024-0.29973z" fill="#e9d9f2" stroke="#7109aa" stroke-width=".5"/>
  <g fill="#7109aa" stroke-width=".26458" aria-label="E">
   <path d="m76.693 78.057h2.0602v-0.54751h-1.4506v-1.3772h1.1176v-0.54751h-1.1176v-1.1289h1.4506v-0.54751h-2.0602z"/>
  </g>
 </g>
 <g id="ru">
  <path d="m85.567 68.748c-0.1662 0-0.30024 0.13353-0.30024 0.29973v10.229c0 2.77 2.2302 4.9997 5.0002 4.9997 2.77 0 5.0002-2.2297 5.0002-4.9997v-10.229c0-0.1662-0.13404-0.29973-0.30024-0.29973z" fill="#e9d9f2" stroke="#7109aa" stroke-width=".5"/>
  <g fill="#7109aa" stroke-width=".26458" aria-label="U">
   <path d="m90.264 78.102q0.18627 0 0.36689-0.04515 0.18062-0.04516 0.32738-0.15804 0.1524-0.11853 0.24271-0.27658 0.09596-0.16369 0.12982-0.34431 0.03951-0.18062 0.03951-0.36689v-3.0028h-0.6096v3.0028q0 0.11289-0.02258 0.23142-0.02258 0.11289-0.08467 0.21449-0.06209 0.09596-0.16933 0.14676-0.1016 0.0508-0.22013 0.0508-0.11289 0-0.22013-0.0508t-0.16933-0.14676q-0.06209-0.1016-0.08467-0.21449-0.02258-0.11853-0.02258-0.23142v-3.0028h-0.6096v3.0028q0 0.18627 0.03387 0.36689 0.03951 0.18062 0.12982 0.34431 0.09596 0.15804 0.24271 0.27658 0.1524 0.11289 0.33302 0.15804 0.18062 0.04515 0.36689 0.04515z"/>
  </g>
 </g>
 <g id="num">
  <path d="m11.1 20.724h125.8c0.1662 0 0.3 0.1338 0.3 0.3v6.4c0 0.1662-0.1338 0.3-0.3 0.3h-125.8c-0.1662 0-0.3-0.1338-0.3-0.3v-6.4c0-0.1662 0.1338-0.3 0.3-0.3z" fill="#e9d9f2" stroke="#7109aa" stroke-width=".5"/>
  <g fill="#7109aa" stroke-width=".26458" aria-label="#">
   <path d="m73.145 26.699h0.52493v-1.1176h0.65476v1.1176h0.52493v-1.1176h0.49107v-0.54751h-0.49107v-1.3095h0.49107v-0.54751h-0.49107v-1.1176h-0.52493v1.1176h-0.65476v-1.1176h-0.52493v1.1176h-0.49107v0.54751h0.49107v1.3095h-0.49107v0.54751h0.49107zm0.52493-1.6651v-1.3095h0.65476v1.3095z"/>
  </g>
 </g>
</svg>
