<?xml version="1.0" encoding="UTF-8" standalone="no"?>
<svg
   version="1"
   viewBox="0 0 48 48"
   enable-background="new 0 0 48 48"
   id="svg10">
  <path
     id="key"
     style="fill:#e9d9f2;fill-opacity:1;stroke:#7109aa;stroke-width:1.88976;stroke-opacity:1"
     d="m 7.8670951,3.7420325 c -0.4324621,0 -0.7798889,0.3497321 -0.7798889,0.7833748 V 31.66038 c 0,0.433643 0.3474268,0.782018 0.7798889,0.782018 h 7.0822819 c 0.613669,6.646919 6.158576,11.816713 12.953044,11.816713 7.009216,0 12.689847,-5.502175 12.997358,-12.451757 0.0078,-0.04775 0.01301,-0.09654 0.01301,-0.146896 V 31.214161 4.5254856 c 0,-0.1896861 -0.06635,-0.3636911 -0.17746,-0.4988979 -0.01561,-0.018264 -0.03253,-0.038094 -0.0497,-0.055314 -0.05282,-0.053227 -0.11371,-0.098626 -0.180063,-0.1348937 -0.03825,-0.020873 -0.07936,-0.038355 -0.120995,-0.052705 -0.0052,-0.00206 -0.01301,-0.00522 -0.01821,-0.00783 -3.9e-4,-1.304e-4 -6.76e-4,1.305e-4 -0.0014,0 -0.07312,-0.023482 -0.150659,-0.034963 -0.231323,-0.034963 z" />
  <g
     aria-label="SVG"
     transform="scale(0.99863767,1.0013642)"
     id="text"
     style="font-weight:600;font-size:14.7072px;line-height:1.25;font-family:'Iosevka Term';text-align:center;text-anchor:middle;fill:#7109aa;stroke-width:0.999998">
    <path
       d="m 16.642342,24.116502 q 0.602995,0 1.176576,-0.176487 0.573581,-0.176486 1.000089,-0.602995 0.441216,-0.426509 0.647117,-0.985382 0.220608,-0.573581 0.220608,-1.161869 0,-0.573581 -0.235315,-1.117747 -0.220608,-0.544167 -0.63241,-0.955968 -0.397094,-0.411802 -0.897139,-0.705946 -0.485337,-0.294144 -0.985382,-0.558873 h -0.01471 q -0.397095,-0.191194 -0.764775,-0.426509 -0.352973,-0.250023 -0.573581,-0.63241 -0.220608,-0.397094 -0.220608,-0.823603 0,-0.36768 0.147072,-0.720653 0.147072,-0.36768 0.470631,-0.558873 0.338265,-0.191194 0.720653,-0.191194 0.352972,0 0.661824,0.161779 0.323558,0.161779 0.47063,0.485338 0.161779,0.323558 0.161779,0.676531 h 1.588378 q 0,-0.558874 -0.205901,-1.088333 -0.191194,-0.544166 -0.602995,-0.941261 -0.411802,-0.397094 -0.970675,-0.558873 -0.544167,-0.161779 -1.10304,-0.161779 -0.588288,0 -1.147162,0.176486 -0.558874,0.176486 -0.970675,0.617702 -0.411802,0.426509 -0.602995,0.985383 -0.191194,0.558873 -0.191194,1.147161 0,0.441216 0.132365,0.882432 0.132365,0.426509 0.397094,0.794189 0.26473,0.36768 0.602995,0.661824 0.352973,0.294144 0.73536,0.529459 0.382388,0.220608 0.779482,0.426509 0.411802,0.191194 0.794189,0.441216 0.382387,0.235315 0.617702,0.63241 0.250023,0.397094 0.250023,0.83831 0,0.397095 -0.176487,0.764775 -0.161779,0.36768 -0.529459,0.544166 -0.352973,0.176486 -0.750067,0.176486 -0.352973,0 -0.705946,-0.147072 -0.338265,-0.147072 -0.529459,-0.47063 -0.176486,-0.338266 -0.176486,-0.691238 h -1.588378 q 0,0.57358 0.220608,1.117747 0.220608,0.529459 0.647117,0.926553 0.441216,0.382388 1.000089,0.544167 0.558874,0.147072 1.132455,0.147072 z"
       id="path6051" />
    <path
       d="m 23.11351,23.998844 h 1.823693 L 27.187404,13.189052 H 25.569612 L 24.21655,20.39558 q -0.04412,0.250023 -0.102951,0.514752 -0.04412,0.250023 -0.08824,0.500045 -0.04412,-0.250022 -0.10295,-0.500045 -0.04412,-0.264729 -0.08824,-0.514752 l -1.338356,-7.206528 h -1.632499 z"
       id="path6053" />
    <path
       d="m 30.73184,24.116502 q 0.500044,0 0.955968,-0.220608 0.47063,-0.220608 0.73536,-0.647117 0.279436,-0.426509 0.411801,-0.911846 v 1.661913 h 1.426599 v -5.98583 h -2.882612 v 1.426598 h 1.294234 v 1.573671 q 0,0.294144 -0.05883,0.602995 -0.05883,0.294144 -0.220608,0.558873 -0.161779,0.250023 -0.441216,0.382388 -0.264729,0.132364 -0.573581,0.132364 -0.308851,0 -0.602995,-0.117657 -0.294144,-0.117658 -0.485337,-0.36768 -0.191194,-0.26473 -0.26473,-0.573581 -0.05883,-0.308851 -0.05883,-0.617702 v -4.838669 q 0,-0.308851 0.05883,-0.602995 0.07354,-0.308852 0.250022,-0.558874 0.191194,-0.26473 0.470631,-0.382387 0.294144,-0.132365 0.602995,-0.132365 0.352973,0 0.676531,0.147072 0.338266,0.147072 0.500045,0.485338 0.176486,0.323558 0.176486,0.676531 h 1.588378 q 0,-0.573581 -0.205901,-1.10304 -0.205901,-0.544167 -0.632409,-0.926554 -0.426509,-0.397094 -0.985383,-0.544166 -0.558873,-0.161779 -1.117747,-0.161779 -0.485338,0 -0.970675,0.117657 -0.485338,0.102951 -0.882432,0.397095 -0.397095,0.294144 -0.661824,0.720652 -0.250023,0.411802 -0.352973,0.89714 -0.10295,0.485337 -0.10295,0.970675 v 4.838669 q 0,0.441216 0.05883,0.882432 0.07354,0.426508 0.235316,0.83831 0.176486,0.411802 0.47063,0.750067 0.308851,0.323559 0.720653,0.485338 0.426509,0.147072 0.867725,0.147072 z"
       id="path6055" />
  </g>
</svg>
