<?xml version="1.0" encoding="UTF-8"?>
<svg width="148mm" height="105mm" version="1.1" viewBox="0 0 148 105" xmlns="http://www.w3.org/2000/svg">
 <path d="m11.1 28.752c-0.1662 0-0.30024 0.13404-0.30024 0.30024v26.258c0 2.77 2.2302 4.9997 5.0002 4.9997s5.0002-2.2297 5.0002-4.9997v-26.258c0-0.1662-0.13404-0.30024-0.30025-0.30024z" fill="#e9d9f2" fill-opacity=".2" stroke="#7109aa" stroke-opacity=".2" stroke-width=".2"/>
 <path d="m23.717 28.753h9.4c0.1662 0 0.3 0.1338 0.3 0.3v14.4c0 0.1662-0.1338 0.3-0.3 0.3h-9.4c-0.1662 0-0.3-0.1338-0.3-0.3v-14.4c0-0.1662 0.1338-0.3 0.3-0.3z" fill="#e9d9f2" fill-opacity=".2" stroke="#7109aa" stroke-opacity=".2" stroke-width=".2"/>
 <path d="m23.717 44.781c-0.1662 0-0.30024 0.13353-0.30024 0.29973v10.229c0 2.77 2.2302 4.9997 5.0002 4.9997s5.0002-2.2297 5.0002-4.9997v-10.229c0-0.1662-0.13404-0.29973-0.30024-0.29973z" fill="#e9d9f2" fill-opacity=".2" stroke="#7109aa" stroke-opacity=".2" stroke-width=".2"/>
 <path d="m36.333 28.753h9.4c0.1662 0 0.3 0.1338 0.3 0.3v14.4c0 0.1662-0.1338 0.3-0.3 0.3h-9.4c-0.1662 0-0.3-0.1338-0.3-0.3v-14.4c0-0.1662 0.1338-0.3 0.3-0.3z" fill="#e9d9f2" fill-opacity=".2" stroke="#7109aa" stroke-opacity=".2" stroke-width=".2"/>
 <path d="m36.334 44.781c-0.1662 0-0.30024 0.13353-0.30024 0.29973v10.229c0 2.77 2.2302 4.9997 5.0002 4.9997s5.0002-2.2297 5.0002-4.9997v-10.229c0-0.1662-0.13404-0.29973-0.30024-0.29973z" fill="#e9d9f2" fill-opacity=".2" stroke="#7109aa" stroke-opacity=".2" stroke-width=".2"/>
 <path d="m48.95 28.753h9.4c0.1662 0 0.3 0.1338 0.3 0.3v14.4c0 0.1662-0.1338 0.3-0.3 0.3h-9.4c-0.1662 0-0.3-0.1338-0.3-0.3v-14.4c0-0.1662 0.1338-0.3 0.3-0.3z" fill="#e9d9f2" fill-opacity=".2" stroke="#7109aa" stroke-opacity=".2" stroke-width=".2"/>
 <path d="m48.95 44.781c-0.1662 0-0.30024 0.13353-0.30024 0.29973v10.229c0 2.77 2.2302 4.9997 5.0002 4.9997s5.0002-2.2297 5.0002-4.9997v-10.229c0-0.1662-0.13404-0.29973-0.30024-0.29973z" fill="#e9d9f2" fill-opacity=".2" stroke="#7109aa" stroke-opacity=".2" stroke-width=".2"/>
 <path d="m61.567 28.752c-0.1662 0-0.30024 0.13404-0.30024 0.30024v26.258c0 2.77 2.2302 4.9997 5.0002 4.9997 2.6209 0 4.757-1.9966 4.9795-4.5579h2.7202c0.16621 0 0.29972-0.13404 0.29972-0.30024v-26.4c0-0.1662-0.13352-0.29972-0.29972-0.29972z" fill="#e9d9f2" fill-opacity=".2" stroke="#7109aa" stroke-opacity=".2" stroke-width=".2"/>
 <path d="m75.596 28.753h9.4c0.1662 0 0.3 0.1338 0.3 0.3v14.4c0 0.1662-0.1338 0.3-0.3 0.3h-9.4c-0.1662 0-0.3-0.1338-0.3-0.3v-14.4c0-0.1662 0.1338-0.3 0.3-0.3z" fill="#e9d9f2" fill-opacity=".2" stroke="#7109aa" stroke-opacity=".2" stroke-width=".2"/>
 <path d="m75.596 44.781c-0.1662 0-0.30024 0.13353-0.30024 0.29973v10.229c0 2.77 2.2302 4.9997 5.0002 4.9997s5.0002-2.2297 5.0002-4.9997v-10.229c0-0.1662-0.13404-0.29973-0.30024-0.29973z" fill="#e9d9f2" fill-opacity=".2" stroke="#7109aa" stroke-opacity=".2" stroke-width=".2"/>
 <path d="m88.212 28.753h9.4c0.1662 0 0.3 0.1338 0.3 0.3v14.4c0 0.1662-0.1338 0.3-0.3 0.3h-9.4c-0.1662 0-0.3-0.1338-0.3-0.3v-14.4c0-0.1662 0.1338-0.3 0.3-0.3z" fill="#e9d9f2" fill-opacity=".2" stroke="#7109aa" stroke-opacity=".2" stroke-width=".2"/>
 <path d="m88.213 44.781c-0.1662 0-0.30024 0.13353-0.30024 0.29973v10.229c0 2.77 2.2302 4.9997 5.0002 4.9997s5.0002-2.2297 5.0002-4.9997v-10.229c0-0.1662-0.13404-0.29973-0.30024-0.29973z" fill="#e9d9f2" fill-opacity=".2" stroke="#7109aa" stroke-opacity=".2" stroke-width=".2"/>
 <path d="m100.83 28.753h9.4c0.1662 0 0.3 0.1338 0.3 0.3v14.4c0 0.1662-0.1338 0.3-0.3 0.3h-9.4c-0.1662 0-0.3-0.1338-0.3-0.3v-14.4c0-0.1662 0.1338-0.3 0.3-0.3z" fill="#e9d9f2" fill-opacity=".2" stroke="#7109aa" stroke-opacity=".2" stroke-width=".2"/>
 <path d="m100.83 44.781c-0.1662 0-0.30024 0.13353-0.30024 0.29973v10.229c0 2.77 2.2302 4.9997 5.0002 4.9997s5.0002-2.2297 5.0002-4.9997v-10.229c0-0.1662-0.13404-0.29973-0.30024-0.29973z" fill="#e9d9f2" fill-opacity=".2" stroke="#7109aa" stroke-opacity=".2" stroke-width=".2"/>
 <path d="m113.45 28.753h9.4c0.1662 0 0.3 0.1338 0.3 0.3v14.4c0 0.1662-0.1338 0.3-0.3 0.3h-9.4c-0.1662 0-0.3-0.1338-0.3-0.3v-14.4c0-0.1662 0.1338-0.3 0.3-0.3z" fill="#e9d9f2" fill-opacity=".2" stroke="#7109aa" stroke-opacity=".2" stroke-width=".2"/>
 <path d="m113.45 44.781c-0.1662 0-0.30024 0.13353-0.30024 0.29973v10.229c0 2.77 2.2302 4.9997 5.0002 4.9997s5.0002-2.2297 5.0002-4.9997v-10.229c0-0.1662-0.13404-0.29973-0.30024-0.29973z" fill="#e9d9f2" fill-opacity=".2" stroke="#7109aa" stroke-opacity=".2" stroke-width=".2"/>
 <path d="m124.47 28.753h12.4c0.1662 0 0.3 0.1338 0.3 0.3v14.4c0 0.1662-0.1338 0.3-0.3 0.3h-12.4c-0.1662 0-0.3-0.1338-0.3-0.3v-14.4c0-0.1662 0.1338-0.3 0.3-0.3z" fill="#e9d9f2" fill-opacity=".2" stroke="#7109aa" stroke-opacity=".2" stroke-width=".2"/>
 <path d="m124.47 44.781c-0.1662 0-0.29972 0.13404-0.29972 0.30024v10.4c0 0.1662 0.13352 0.29972 0.29972 0.29972h2.7218c0.23584 2.5475 2.3668 4.5289 4.978 4.5289 2.6937 0 4.8768-2.1088 4.995-4.7723 3e-3 -0.0183 5e-3 -0.037 5e-3 -0.0563v-10.4c0-0.0727-0.0255-0.13939-0.0682-0.19121-6e-3 -7e-3 -0.0125-0.0146-0.0191-0.0212-0.0203-0.0204-0.0437-0.0378-0.0692-0.0517-0.0147-8e-3 -0.0305-0.0147-0.0465-0.0202-2e-3 -7.9e-4 -5e-3 -2e-3 -7e-3 -3e-3 -1.5e-4 -5e-5 -2.6e-4 5e-5 -5.3e-4 0-0.0281-9e-3 -0.0579-0.0134-0.0889-0.0134z" fill="#e9d9f2" fill-opacity=".2" stroke="#7109aa" stroke-opacity=".2" stroke-width=".2"/>
 <path d="m38.98 68.748c-0.1662 0-0.30024 0.13353-0.30024 0.29973v10.229c0 2.77 2.2302 4.9997 5.0002 4.9997s5.0002-2.2297 5.0002-4.9997v-10.229c0-0.1662-0.13404-0.29973-0.30024-0.29973z" fill="#e9d9f2" fill-opacity=".2" stroke="#7109aa" stroke-opacity=".2" stroke-width=".2"/>
 <path d="m51.596 68.748c-0.1662 0-0.30024 0.13353-0.30024 0.29973v10.229c0 2.77 2.2302 4.9997 5.0002 4.9997s5.0002-2.2297 5.0002-4.9997v-10.229c0-0.1662-0.13404-0.29973-0.30024-0.29973z" fill="#e9d9f2" fill-opacity=".2" stroke="#7109aa" stroke-opacity=".2" stroke-width=".2"/>
 <path d="m72.95 68.748c-0.1662 0-0.30024 0.13353-0.30024 0.29973v10.229c0 2.77 2.2302 4.9997 5.0002 4.9997s5.0002-2.2297 5.0002-4.9997v-10.229c0-0.1662-0.13404-0.29973-0.30024-0.29973z" fill="#e9d9f2" fill-opacity=".2" stroke="#7109aa" stroke-opacity=".2" stroke-width=".2"/>
 <path d="m85.567 68.748c-0.1662 0-0.30024 0.13353-0.30024 0.29973v10.229c0 2.77 2.2302 4.9997 5.0002 4.9997s5.0002-2.2297 5.0002-4.9997v-10.229c0-0.1662-0.13404-0.29973-0.30024-0.29973z" fill="#e9d9f2" fill-opacity=".2" stroke="#7109aa" stroke-opacity=".2" stroke-width=".2"/>
 <path d="m11.1 20.724h125.8c0.1662 0 0.3 0.1338 0.3 0.3v6.4c0 0.1662-0.1338 0.3-0.3 0.3h-125.8c-0.1662 0-0.3-0.1338-0.3-0.3v-6.4c0-0.1662 0.1338-0.3 0.3-0.3z" fill="#e9d9f2" fill-opacity=".2" stroke="#7109aa" stroke-opacity=".2" stroke-width=".2"/>
 <rect x="46.498" y="41.232" width="57.396" height="6.898" rx=".5" ry=".5" fill="#e9d9f2" stroke="#7109aa" stroke-linecap="round" stroke-linejoin="round" stroke-width=".5"/>
 <g fill="#7109aa" stroke-width=".26458" aria-label="Invalid SVG path or file.">
  <path d="m49.433 43.445q-0.15434 0-0.38826-0.03135l-0.38826-0.05064q-0.05547 0.70177-0.05547 1.3408 0 0.16881 0.0096 0.4172 0.0096 0.24839 0.0096 0.4172 0 0.22669-0.01688 0.41238l0.75964-0.0096q0.10129 0 0.16881 0.07235 0.06994 0.06994 0.06994 0.17363 0 0.10611-0.06994 0.17846-0.06752 0.06994-0.16881 0.06994-0.13505 0-0.40514 0.0072-0.2701 0.0048-0.40514 0.0048-0.15916 0-0.47749 0.04341-0.31592 0.04582-0.47749 0.04582-0.10129 0-0.17122-0.07235-0.06752-0.06994-0.06752-0.17363 0-0.1037 0.06752-0.17604 0.06994-0.07235 0.17122-0.07235 0.15675 0 0.51849-0.05064 0.02412-0.19534 0.02412-0.44614 0-0.1664-0.01688-0.40514-0.01447-0.24116-0.01447-0.40514 0-0.55707 0.06752-1.3915l-0.3135 0.0096-0.3135 0.0072q-0.1037 0-0.17363-0.06994-0.06994-0.06994-0.06994-0.17846 0-0.22428 0.22669-0.24598 0.19534-0.01929 0.73071-0.01929 0.4799 0 1.2034 0.1037 0.21463 0.03135 0.21463 0.25804 0 0.11334-0.08199 0.18087-0.07235 0.05547-0.1664 0.05547z"/>
  <path d="m52.008 46.621q-0.2074 0-0.23392-0.22669l-0.06752-0.52814q-0.03376-0.28215-0.03376-0.52813 0-0.06752 0.0072-0.2291 0.0096-0.16158 0.0096-0.2291 0-0.5209-0.19292-0.5209-0.2701 0-0.51608 0.32074-0.22186 0.2918-0.34727 0.73794-0.0048 0.09405-0.02171 0.23633-0.01447 0.12058-0.01447 0.23392 0 0.07235 0.01447 0.21704 0.01447 0.14469 0.01447 0.21704 0 0.10852-0.06752 0.17604-0.06511 0.06752-0.16881 0.06752-0.10611 0-0.17122-0.06752-0.06511-0.06752-0.06511-0.17604 0-0.07235-0.01688-0.21704-0.01447-0.14469-0.01447-0.21704 0-0.24839 0.03376-0.6873 0.03617-0.44132 0.03617-0.68971 0-0.07717-0.0096-0.2291-0.0072-0.15193-0.0072-0.2291 0-0.1037 0.06752-0.16881 0.06994-0.06752 0.17122-0.06752 0.22186 0 0.24357 0.3135l0.0072 0.28215q0.40514-0.54019 0.83199-0.54019 0.38585 0 0.53778 0.34003 0.1037 0.22669 0.11334 0.67042v0.24357l-0.0024 0.22428q0 0.20016 0.05064 0.51849 0.05306 0.31592 0.05306 0.51366 0 0.10611-0.06994 0.17122-0.06752 0.06752-0.17122 0.06752z"/>
  <path d="m53.856 46.324q-0.0072 0.22186-0.21945 0.22186-0.17604 0-0.25563-0.2074l-0.36897-0.9791-0.42926-1.1069q-0.02412-0.0627-0.02412-0.11093 0-0.09887 0.07476-0.16881 0.07476-0.06993 0.17363-0.06993 0.1447 0 0.2074 0.1471l0.61254 1.6857q0.18087-0.38585 0.45579-1.119 0.06511-0.19293 0.20498-0.54502 0.07476-0.15434 0.21222-0.15434 0.09887 0 0.17363 0.06994 0.07476 0.06994 0.07476 0.1664 0 0.09164-0.39791 1.0322z"/>
  <path d="m57.029 46.609q-0.04582 0-0.1664-0.10611-0.10852-0.09887-0.16158-0.17604-0.23151 0.1254-0.40756 0.1881-0.17604 0.06511-0.29421 0.06511-0.56431 0-0.82235-0.31833-0.24357-0.29904-0.24357-0.9164 0-0.5836 0.40032-0.99839 0.40273-0.41479 0.95981-0.41479 0.20981 0 0.47026 0.10852 0.32797 0.13505 0.32797 0.32556 0 0.06511-0.04823 0.11576-0.02412 0.09164-0.03858 0.30145-0.01206 0.20981-0.01447 0.53778-0.0024 0.29904 0.041 0.47267 0.02412 0.10611 0.15193 0.42444 0.01688 0.04341 0.05547 0.12781l0.01447 0.041q0 0.09646-0.06752 0.15916-0.06752 0.0627-0.15675 0.0627zm-0.50161-1.676q0-0.1037 0.01206-0.22428 0.01447-0.12299 0.041-0.26045-0.08923-0.04582-0.15434-0.06752-0.0627-0.0217-0.10129-0.0217-0.37379 0-0.6463 0.30627-0.2701 0.30386-0.2701 0.70177 0 0.3955 0.13987 0.59325t0.41961 0.19775q0.23151 0 0.39309-0.0844 0.08682-0.04582 0.24357-0.18328-0.07717-0.63907-0.07717-0.95739z"/>
  <path d="m58.286 44.554-0.03617 1.1986q0 0.19052-0.01929 0.55948-0.02412 0.24116-0.23633 0.24116-0.23633 0-0.23633-0.24598 0-0.2918 0.02653-0.8754 0.02653-0.58601 0.02653-0.87781 0-0.38103 0.01206-0.87058 0.01206-0.49196 0.01206-0.87299 0-0.24116 0.23633-0.24116 0.23875 0 0.23875 0.24116 0 0.38103-0.01206 0.87299-0.01206 0.48955-0.01206 0.87058z"/>
  <path d="m59.487 43.397q-0.11576 0-0.20016-0.08199-0.08441-0.08199-0.08441-0.19775 0-0.11576 0.08441-0.19775 0.0844-0.08199 0.20016-0.08199 0.11576 0 0.19775 0.08199 0.08441 0.08199 0.08441 0.19775 0 0.11576-0.08441 0.19775-0.08199 0.08199-0.19775 0.08199zm0.10852 1.9582q0 0.14469 0.0072 0.43408 0.0096 0.28698 0.0096 0.43167 0 0.10611-0.06511 0.17363-0.06511 0.06752-0.17122 0.06752-0.1037 0-0.17122-0.06752-0.06511-0.06752-0.06511-0.17363 0-0.14469-0.0096-0.43167-0.0072-0.28939-0.0072-0.43408 0-0.22669 0.02412-0.56431 0.02412-0.34003 0.02412-0.56672 0-0.10852 0.06511-0.17604 0.06752-0.06752 0.17122-0.06752 0.1037 0 0.16881 0.06752 0.06752 0.06752 0.06752 0.17604 0 0.22669-0.02412 0.56672-0.02412 0.33762-0.02412 0.56431z"/>
  <path d="m62.631 44.32q-0.02894 0.3545-0.02894 0.709 0 0.80305 0.07476 1.213 0.0048 0.03376 0.0048 0.05547 0 0.09646-0.06752 0.15916-0.06752 0.0627-0.15675 0.0627-0.14952 0-0.21945-0.21704-0.17363 0.12781-0.36174 0.19293-0.18569 0.06511-0.38826 0.06511-0.4992 0-0.82717-0.3328-0.33762-0.34003-0.33762-0.87299 0-0.64389 0.34003-1.0322 0.34244-0.38826 0.88746-0.38826 0.27974 0 0.43167 0.08682l0.22669 0.1664q0.03376-1.0153 0.07958-1.3674 0.03135-0.21463 0.21945-0.21463 0.21945 0 0.21945 0.23392 0 0.33521-0.09646 1.4807zm-1.0707 0.0627q-0.40514 0-0.60772 0.24116-0.20257 0.23874-0.20257 0.72106 0 0.31109 0.21945 0.53537 0.22186 0.22428 0.51849 0.22428 0.20257 0 0.34244-0.07476 0.08199-0.04341 0.26768-0.20016 0.03617-0.03135 0.06994-0.07476l-0.0072-0.4172 0.0024-0.27974 0.0048-0.28457q-0.09164-0.19534-0.24357-0.2918-0.15193-0.09887-0.36415-0.09887z"/>
  <path d="m64.775 45.849q-0.0024-0.10129 0.06752-0.16399 0.07235-0.06511 0.17604-0.06511 0.11817 0 0.2074 0.13505 0.12299 0.18328 0.21945 0.24839 0.20498 0.13505 0.59566 0.13505 0.37379 0 0.69453-0.16158 0.40997-0.2074 0.40997-0.57637 0-0.30386-0.34486-0.4799-0.2918-0.15193-0.72106-0.16399-0.38103-0.01447-0.64871-0.1664-0.34244-0.19534-0.34244-0.55948 0-0.42926 0.48714-0.78376 0.46543-0.33521 0.96222-0.33521 0.23392 0 0.52813 0.07958 0.39068 0.1037 0.39068 0.26527 0 0.21222-0.21704 0.21222-0.09646 0-0.33762-0.05064-0.24116-0.05306-0.37379-0.05064-0.3762 0.0048-0.63907 0.18569-0.2701 0.18569-0.2701 0.45096 0 0.20016 0.35691 0.28215 0.13264 0.03135 0.51366 0.05788 0.55225 0.041 0.86334 0.34727 0.28457 0.27974 0.28457 0.68248 0 0.57395-0.53055 0.9164-0.46061 0.29662-1.0683 0.29662-0.44132 0-0.80788-0.16881-0.44855-0.2074-0.45579-0.56913z"/>
  <path d="m71.026 43.143q-0.14952 0.22428-0.24357 0.47026l-0.18328 0.52813-0.64871 1.7532q-0.11334 0.30868-0.26527 0.60289-0.07717 0.1447-0.21704 0.1447-0.18569 0-0.26045-0.1881-0.2918-0.73312-0.64871-2.1101l-0.19051-0.66318q-0.14228-0.50161-0.14228-0.65595 0-0.10852 0.07717-0.17846 0.06994-0.06511 0.16881-0.06511 0.18328 0 0.23633 0.19775l0.08923 0.41961 0.23151 0.81994q0.23151 0.8971 0.45096 1.5458l0.01447-0.03858 0.6463-1.7508 0.20498-0.59084q0.13746-0.35691 0.2918-0.54019 0.07958-0.09646 0.1881-0.09646 0.09646 0 0.17122 0.07476 0.07717 0.07235 0.07717 0.17604 0 0.07235-0.04823 0.14469z"/>
  <path d="m74.221 44.991q-0.14952 0.74035-0.62942 1.1841-0.47749 0.44132-1.1286 0.44132-0.59325 0-0.88987-0.33038-0.29662-0.3328-0.29662-0.99598 0-0.6246 0.29421-1.2854 0.29662-0.66318 0.75964-1.0707 0.30868-0.27251 0.65354-0.27251 0.21945 0 0.57878 0.14469 0.43891 0.17363 0.43891 0.38344 0 0.09887-0.07235 0.17604-0.07235 0.07717-0.17363 0.07717-0.05305 0-0.14952-0.06029-0.36897-0.22428-0.62219-0.22428-0.18087 0-0.37862 0.1881-0.09888 0.09405-0.28457 0.34244-0.55707 0.73794-0.55707 1.6013 0 0.45338 0.13987 0.63424 0.15193 0.19775 0.55948 0.19775 0.43167 0 0.75-0.27251 0.33521-0.28939 0.46784-0.82717-0.66801 0.03376-1.1455 0.25804-0.05547 0.02653-0.10852 0.02653-0.10611 0-0.17604-0.08199-0.06511-0.07476-0.06511-0.17363 0-0.13264 0.12781-0.21222 0.5209-0.31833 1.7966-0.31833 0.1037 0 0.17363 0.06994 0.06994 0.06994 0.06994 0.17604 0 0.15675-0.13264 0.22428z"/>
  <path d="m77.279 46.534q-0.24116 0-0.53055-0.07717l-0.0048 1.1527q0 0.10611-0.06752 0.17363-0.06511 0.06752-0.16881 0.06752-0.1037 0-0.17122-0.06752-0.06511-0.06752-0.06511-0.17363l0.0072-0.96463v-0.96222q-0.0072-0.52813-0.03617-0.96222l-0.03617-0.48955q0-0.17122 0.0627-0.28939 0.07235-0.14228 0.20981-0.14228 0.09405 0 0.15675 0.06752 0.06511 0.06511 0.06511 0.16158 0 0.0217-0.0072 0.07958-0.01206 0.07476-0.01688 0.13746 0.2074-0.14228 0.40032-0.21222 0.19293-0.07235 0.36897-0.07235 0.49437 0 0.72347 0.43891 0.18087 0.34727 0.18087 0.91881 0 0.5209-0.27974 0.85852-0.29662 0.35691-0.791 0.35691zm0.1664-2.0908q-0.22186 0-0.40032 0.09887-0.12781 0.06994-0.32315 0.25563 0.03135 0.54743 0.03135 1.1503 0.26286 0.10129 0.52572 0.10129 0.30145 0 0.46061-0.22428 0.13746-0.19534 0.13746-0.50643 0-0.43891-0.10852-0.65595-0.10611-0.21945-0.32315-0.21945z"/>
  <path d="m80.779 46.609q-0.04582 0-0.1664-0.10611-0.10852-0.09887-0.16158-0.17604-0.23151 0.1254-0.40756 0.1881-0.17604 0.06511-0.29421 0.06511-0.56431 0-0.82235-0.31833-0.24357-0.29904-0.24357-0.9164 0-0.5836 0.40032-0.99839 0.40273-0.41479 0.95981-0.41479 0.20981 0 0.47026 0.10852 0.32797 0.13505 0.32797 0.32556 0 0.06511-0.04823 0.11576-0.02412 0.09164-0.03858 0.30145-0.01206 0.20981-0.01447 0.53778-0.0024 0.29904 0.041 0.47267 0.02412 0.10611 0.15193 0.42444 0.01688 0.04341 0.05547 0.12781l0.01447 0.041q0 0.09646-0.06752 0.15916-0.06752 0.0627-0.15675 0.0627zm-0.50161-1.676q0-0.1037 0.01206-0.22428 0.01447-0.12299 0.041-0.26045-0.08923-0.04582-0.15434-0.06752-0.0627-0.0217-0.10129-0.0217-0.37379 0-0.6463 0.30627-0.2701 0.30386-0.2701 0.70177 0 0.3955 0.13987 0.59325t0.41961 0.19775q0.23151 0 0.39309-0.0844 0.08682-0.04582 0.24357-0.18328-0.07717-0.63907-0.07717-0.95739z"/>
  <path d="m83.036 44.395q-0.05064 0-0.12058-0.0048-0.06752-0.0048-0.11817-0.0048-0.05547 0-0.32797 0.03617l0.04582 1.4252 0.0024 0.10611 0.0024 0.12299q0.0096 0.52813-0.25322 0.52813-0.09646 0-0.16881-0.0627-0.06994-0.0627-0.06994-0.15675 0-0.09164 0.0072-0.27492t0.0072-0.27492l-0.04823-1.4084q-0.17604-0.0072-0.53537-0.041-0.21463-0.02894-0.21463-0.23875 0-0.10611 0.06511-0.17604 0.06511-0.06994 0.1664-0.06994l0.50643 0.041q0-0.12299-0.01206-0.32797-0.0096-0.2074-0.0096-0.29904 0-0.10129 0.06994-0.1664 0.06994-0.06752 0.17122-0.06752 0.21704 0 0.25322 0.3545 0.0072 0.08923 0.0072 0.21463l-0.0048 0.13987-0.0024 0.14952q0.29904-0.03859 0.34244-0.03859 0.2508 0 0.32797 0.02412 0.14711 0.04823 0.14711 0.22669 0 0.10611-0.06752 0.17604-0.06511 0.06752-0.16881 0.06752z"/>
  <path d="m85.768 46.599q-0.17122 0-0.22428-0.18328-0.05547-0.19775-0.10129-0.5619-0.04341-0.34968-0.04341-0.57395 0-0.0627 0.0048-0.19051 0.0072-0.12781 0.0072-0.19051 0-0.45338-0.22669-0.45338-0.30627 0-0.54743 0.27733-0.12299 0.14228-0.33762 0.5426 0 0.91881-0.07717 1.0876-0.06752 0.14952-0.20981 0.14952-0.09887 0-0.17363-0.06752-0.07476-0.06752-0.07476-0.16399 0-0.03376 0.0217-0.10611 0.01929-0.06029 0.02653-0.35209l0.0072-0.35691 0.0072-1.7725q0.01688-0.29903 0.01688-0.40273 0-0.12299-0.02412-0.23151-0.0217-0.11093-0.0217-0.2291 0-0.10129 0.06994-0.1664 0.06994-0.06752 0.17122-0.06752 0.19775 0 0.23151 0.21222 0.03858 0.23392 0.03858 0.42203 0 0.25322-0.01688 0.52813-0.01447 0.26286-0.01206 0.52813l0.0024 0.21222q0.19775-0.26527 0.42202-0.3955 0.22669-0.13264 0.4799-0.13264 0.40032 0 0.54984 0.26045 0.10611 0.18328 0.12058 0.61736l0.01929 0.46061 0.04823 0.50161q0.03376 0.28215 0.08199 0.49678 0.0096 0.041 0.0096 0.06994 0 0.09887-0.07235 0.16399-0.07235 0.06752-0.17363 0.06752z"/>
  <path d="m88.983 46.592q-0.40514 0-0.69694-0.29904-0.32556-0.3328-0.34244-0.89469-0.01447-0.54502 0.27492-0.9598 0.33762-0.48955 0.94051-0.48955 0.48231 0 0.73071 0.44132 0.19775 0.35691 0.19051 0.85852-0.0072 0.53537-0.27974 0.91399-0.30868 0.42926-0.81752 0.42926zm0.14469-2.1535q-0.3545-0.0024-0.55225 0.33762-0.15675 0.27251-0.15675 0.62218t0.19051 0.54502q0.15916 0.16158 0.37379 0.16158 0.2508 0 0.43167-0.18328 0.20498-0.20257 0.21704-0.54743 0.03376-0.93328-0.50402-0.93569z"/>
  <path d="m92.552 44.668q-0.01688 0.30145-0.24116 0.30145-0.2074 0-0.2074-0.23874 0-0.04582-0.0072-0.16881l-0.0072-0.20257q-0.38103 0.04582-0.61013 0.21463-0.21463 0.15675-0.35691 0.47267l0.0048 1.3215q0 0.24357-0.23875 0.24357-0.21222 0-0.21222-0.24357v-1.6929q0-0.07958 0.0048-0.23875 0.0072-0.15916 0.0072-0.23875 0-0.24357 0.21222-0.24357 0.23633 0 0.23874 0.40032 0.46302-0.44614 1.0273-0.44614 0.19534 0 0.2918 0.14711 0.09646 0.1471 0.09646 0.44373 0 0.1254-0.0024 0.16881z"/>
  <path d="m96.145 43.059q-0.5836 0-0.65354 0.81029l-0.0072 0.14952q0.40997-0.02894 0.53055-0.02894 0.38344 0 0.38344 0.24116 0 0.17604-0.1881 0.20981-0.08199 0.01447-0.19293 0.01206-0.10852-0.0048-0.55466 0.03135l-0.01929 0.54984q0 0.14952 0.0096 0.44855t0.0096 0.44614q0 0.4582-0.05306 0.71383-0.041 0.19292-0.22428 0.19292-0.09887 0-0.16881-0.06511-0.06994-0.0627-0.06994-0.15916 0-0.01929 0.0048-0.04823 0.05064-0.3135 0.05064-0.68248l-0.0072-0.65836v-0.69936q-0.30145 0.02411-0.38103 0.02411-0.24357 0-0.24357-0.23392 0-0.23875 0.42202-0.2508l0.23151-0.0072q0.0072-0.13505 0.03617-0.36656 0.0627-0.53537 0.2701-0.78858 0.2508-0.30627 0.78376-0.30627 0.34486 0 0.34486 0.23392 0 0.23151-0.3135 0.23151z"/>
  <path d="m97.496 43.397q-0.11576 0-0.20016-0.08199-0.08441-0.08199-0.08441-0.19775 0-0.11576 0.08441-0.19775 0.0844-0.08199 0.20016-0.08199 0.11576 0 0.19775 0.08199 0.08441 0.08199 0.08441 0.19775 0 0.11576-0.08441 0.19775-0.08199 0.08199-0.19775 0.08199zm0.10852 1.9582q0 0.14469 0.0072 0.43408 0.0096 0.28698 0.0096 0.43167 0 0.10611-0.06511 0.17363-0.06511 0.06752-0.17122 0.06752-0.1037 0-0.17122-0.06752-0.06511-0.06752-0.06511-0.17363 0-0.14469-0.0096-0.43167-0.0072-0.28939-0.0072-0.43408 0-0.22669 0.02412-0.56431 0.02412-0.34003 0.02412-0.56672 0-0.10852 0.06511-0.17604 0.06752-0.06752 0.17122-0.06752 0.1037 0 0.16881 0.06752 0.06752 0.06752 0.06752 0.17604 0 0.22669-0.02412 0.56672-0.02412 0.33762-0.02412 0.56431z"/>
  <path d="m99.032 44.554-0.03617 1.1986q0 0.19052-0.01929 0.55948-0.02412 0.24116-0.23633 0.24116-0.23634 0-0.23634-0.24598 0-0.2918 0.02653-0.8754 0.02653-0.58601 0.02653-0.87781 0-0.38103 0.01206-0.87058 0.01206-0.49196 0.01206-0.87299 0-0.24116 0.23633-0.24116 0.23874 0 0.23874 0.24116 0 0.38103-0.01206 0.87299-0.01206 0.48955-0.01206 0.87058z"/>
  <path d="m100.9 46.561q-0.54501 0-0.88263-0.27251-0.36897-0.30145-0.36897-0.84405 0-0.62701 0.30386-1.0514 0.33039-0.46302 0.88264-0.46302 0.40032 0 0.65354 0.13505 0.31109 0.1664 0.31109 0.51125 0 0.24116-0.27251 0.43891-0.12058 0.08682-0.51125 0.2701l-0.92122 0.4365q0.13504 0.20016 0.33521 0.30145 0.20257 0.10129 0.47025 0.10129 0.1664 0 0.39068-0.0627 0.28456-0.07958 0.36656-0.2074 0.082-0.13022 0.17604-0.13022 0.0844 0 0.14952 0.06511 0.0675 0.0627 0.0675 0.14711 0 0.26768-0.43167 0.46061-0.36897 0.16399-0.71865 0.16399zm-0.0651-2.1969q-0.29421 0-0.48955 0.2291-0.19534 0.22669-0.2918 0.68489l0.74035-0.35209q0.4365-0.21222 0.62219-0.36897-0.2074-0.19293-0.58119-0.19293z"/>
  <path d="m102.79 46.674q-0.1254 0-0.21222-0.08682-0.0868-0.08682-0.0868-0.21222 0-0.12299 0.0868-0.20981 0.0868-0.08923 0.21222-0.08923 0.12299 0 0.20981 0.08923 0.0892 0.08682 0.0892 0.20981 0 0.1254-0.0892 0.21222-0.0868 0.08682-0.20981 0.08682z"/>
 </g>
</svg>
